<?xml version="1.0" encoding="UTF-8"?>
<svg id="Layer_2" data-name="Layer 2" xmlns="http://www.w3.org/2000/svg" xmlns:xlink="http://www.w3.org/1999/xlink" viewBox="0 0 841.89 595.28">
  <defs>
    <style>
      .cls-1, .cls-2, .cls-3 {
        fill: none;
      }

      .cls-4 {
        fill: #e6332b;
      }

      .cls-5 {
        font-family: AXIS-ExtraBold, 'AXIS ExtraBold';
        font-weight: 700;
      }

      .cls-5, .cls-6, .cls-7 {
        font-size: 12px;
      }

      .cls-2 {
        stroke: #1d1d1b;
        stroke-width: .5px;
      }

      .cls-2, .cls-3 {
        stroke-miterlimit: 10;
      }

      .cls-6 {
        font-family: Montserrat-ThinItalic, 'Montserrat ThinItalic';
        font-weight: 200;
      }

      .cls-6, .cls-7 {
        font-style: italic;
      }

      .cls-8 {
        font-family: Montserrat-Regular, 'Montserrat Regular';
      }

      .cls-8, .cls-9 {
        font-size: 10px;
      }

      .cls-10 {
        letter-spacing: 0em;
      }

      .cls-11 {
        clip-path: url(#clippath-1);
      }

      .cls-12 {
        letter-spacing: 0em;
      }

      .cls-13 {
        fill: #282828;
      }

      .cls-14 {
        fill: #e0d5d9;
      }

      .cls-15 {
        fill: #c33;
      }

      .cls-16 {
        fill: #878787;
        font-family: Montserrat-Light, 'Montserrat Light';
        font-size: 9px;
      }

      .cls-16, .cls-7 {
        font-weight: 300;
      }

      .cls-7 {
        font-family: Montserrat-LightItalic, 'Montserrat LightItalic';
      }

      .cls-17 {
        letter-spacing: -.13em;
      }

      .cls-18 {
        letter-spacing: -.02em;
      }

      .cls-9 {
        font-family: Montserrat-SemiBold, 'Montserrat SemiBold';
        font-weight: 600;
      }

      .cls-19 {
        letter-spacing: -.02em;
      }

      .cls-20 {
        letter-spacing: -.01em;
      }

      .cls-21 {
        letter-spacing: -.05em;
      }

      .cls-22 {
        letter-spacing: -.03em;
      }

      .cls-23 {
        letter-spacing: 0em;
      }

      .cls-24 {
        letter-spacing: 0em;
      }

      .cls-25 {
        letter-spacing: 0em;
      }

      .cls-26 {
        letter-spacing: .1em;
      }

      .cls-27 {
        letter-spacing: .1em;
      }

      .cls-28 {
        letter-spacing: .1em;
      }

      .cls-3 {
        stroke: #e0d5d9;
        stroke-width: 2px;
      }

      .cls-29 {
        letter-spacing: .02em;
      }

      .cls-30 {
        letter-spacing: .02em;
      }

      .cls-31 {
        letter-spacing: .02em;
      }

      .cls-32 {
        clip-path: url(#clippath);
      }

      .cls-33 {
        letter-spacing: .04em;
      }

      .cls-34 {
        letter-spacing: .04em;
      }

      .cls-35 {
        letter-spacing: .04em;
      }

      .cls-36 {
        letter-spacing: .03em;
      }

      .cls-37 {
        letter-spacing: .04em;
      }

      .cls-38 {
        letter-spacing: .03em;
      }

      .cls-39 {
        letter-spacing: .03em;
      }
    </style>
    <clipPath id="clippath">
      <rect class="cls-1" width="841.89" height="595.28"/>
    </clipPath>
    <clipPath id="clippath-1">
      <rect class="cls-1" width="841.89" height="595.28"/>
    </clipPath>
  </defs>
  <g id="Layer_1-2" data-name="Layer 1">
    <g class="cls-32">
      <text class="cls-8" transform="translate(520.48 173.76)"><tspan x="0" y="0">3</tspan></text>
      <text class="cls-8" transform="translate(526.48 173.76)"><tspan class="cls-34" x="0" y="0">D</tspan><tspan class="cls-27" x="7.02" y="0"> </tspan><tspan class="cls-31" x="10.17" y="0">e</tspan><tspan class="cls-35" x="15.39" y="0">x</tspan><tspan class="cls-37" x="20.37" y="0">truded</tspan><tspan class="cls-27" x="50.91" y="0"> </tspan><tspan class="cls-39" x="54.06" y="0">L</tspan><tspan class="cls-37" x="59.06" y="0">ogo</tspan><tspan class="cls-26" x="76.71" y="0"> </tspan><tspan class="cls-37" x="79.87" y="0">Sign</tspan><tspan class="cls-28" x="99.72" y="0"> </tspan><tspan class="cls-37" x="102.87" y="0">in</tspan><tspan class="cls-26" x="111.48" y="0"> </tspan><tspan class="cls-36" x="114.64" y="0">o</tspan><tspan class="cls-34" x="120.48" y="0">fﬁc</tspan><tspan class="cls-36" x="134.19" y="0">i</tspan><tspan class="cls-34" x="136.88" y="0">a</tspan><tspan class="cls-36" x="142.06" y="0">l</tspan><tspan x="144.77" y="0"> </tspan></text>
      <text class="cls-9" transform="translate(702.28 173.76)"><tspan class="cls-39" x="0" y="0">c</tspan><tspan class="cls-37" x="4.76" y="0">olo</tspan><tspan class="cls-12" x="19.18" y="0">r </tspan></text>
      <text class="cls-9" transform="translate(520.48 185.76)"><tspan class="cls-38" x="0" y="0">p</tspan><tspan class="cls-37" x="5.98" y="0">ale</tspan><tspan class="cls-29" x="19.25" y="0">t</tspan><tspan class="cls-30" x="22.78" y="0">t</tspan><tspan x="26.27" y="0">e</tspan></text>
      <text class="cls-8" transform="translate(559.36 185.76)"><tspan class="cls-36" x="0" y="0"> </tspan><tspan class="cls-33" x="2.47" y="0">m</tspan><tspan class="cls-37" x="11.18" y="0">o</tspan><tspan class="cls-36" x="17.03" y="0">d</tspan><tspan class="cls-37" x="23.02" y="0">e</tspan><tspan x="28.39" y="0">s </tspan></text>
      <path class="cls-4" d="M1,1h839.89v593.28H1V1ZM0,595.28h841.89V0H0v595.28Z"/>
      <text class="cls-5" transform="translate(113.08 102.13)"><tspan x="0" y="0">3D </tspan><tspan class="cls-22" x="16.69" y="0">L</tspan><tspan x="21.95" y="0">ogo sign + </tspan><tspan class="cls-19" x="77.54" y="0">C</tspan><tspan x="84.27" y="0">o</tspan><tspan class="cls-22" x="90.86" y="0">l</tspan><tspan x="93.29" y="0">or </tspan><tspan class="cls-17" x="106.34" y="0">P</tspan><tspan x="111.13" y="0">alette</tspan></text>
      <text class="cls-7" transform="translate(112.56 84.14)"><tspan x="0" y="0">Chia</tspan><tspan class="cls-24" x="22.21" y="0">c</tspan><tspan x="27.48" y="0">o</tspan></text>
      <text class="cls-6" transform="translate(154.45 84.14)"><tspan x="0" y="0" xml:space="preserve"> B</tspan><tspan class="cls-20" x="9.05" y="0">r</tspan><tspan x="12.8" y="0">anding Guidelines | </tspan><tspan class="cls-18" x="111.71" y="0">V</tspan><tspan x="118.11" y="0">isual Identi</tspan><tspan class="cls-25" x="172.53" y="0">t</tspan><tspan class="cls-10" x="176.4" y="0">y</tspan></text>
      <text class="cls-16" transform="translate(685.19 488.49)"><tspan class="cls-21" x="0" y="0">V</tspan><tspan x="4.54" y="0">e</tspan><tspan class="cls-23" x="9.04" y="0">r</tspan><tspan x="11.95" y="0">sion</tspan></text>
      <text class="cls-16" transform="translate(718.05 488.49)"><tspan x="0" y="0"> </tspan></text>
      <text class="cls-16" transform="translate(720.36 488.49)"><tspan x="0" y="0">01</tspan></text>
      <line class="cls-2" x1="113.37" y1="113.39" x2="728.5" y2="113.39"/>
      <polygon class="cls-13" points="197.39 250.14 146.17 198.92 163.91 191.53 197.39 225.01 197.39 250.14"/>
      <polygon class="cls-14" points="113.64 191.53 138.78 191.53 172.26 225.01 147.12 225.01 113.64 191.53"/>
      <polygon class="cls-13" points="113.64 191.53 113.64 216.66 147.12 250.14 147.12 225.01 113.64 191.53"/>
      <polygon class="cls-14" points="138.78 166.39 163.91 166.39 222.53 225.01 197.39 225.01 138.78 166.39"/>
      <polygon class="cls-13" points="138.78 166.39 138.78 191.53 172.26 225.01 172.26 199.87 138.78 166.39"/>
      <g class="cls-11">
        <path class="cls-15" d="M222.53,225.01h-25.14v-25.14h-25.13v25.14h-25.14v25.14h25.14v-6.32c.02-6.92,5.64-12.53,12.57-12.53s12.57,5.63,12.57,12.57v6.28h25.14v-25.14Z"/>
        <path class="cls-13" d="M223.22,337.45l-25.14-25.14-33.47-33.47-.29-.29h-26.52v25.13h-25.13v26.52l.29.29,33.47,33.49.29.29h26.52v-7.3c.01-4.17,2.29-7.97,5.87-10l17.31,17.31h27.1v-26.52l-.29-.29ZM197.87,313.49l24.16,24.16h-24.16v-24.16ZM196.9,312.51h-24.45l-32.98-32.98h24.45l32.98,32.98ZM138.77,303.96v-23.74l33,33v23.76l-33-33.01ZM171.06,337.65h-23.75l-32.99-33h23.74l32.99,33ZM138.77,279.53h0ZM113.64,304.65h0ZM113.64,329.8v-24.45l32.98,33v24.45l-32.98-33ZM180,346.47s.03-.02.05-.03c1.51-.69,3.12-1.04,4.78-1.04,3.1,0,6,1.21,8.19,3.39s3.39,5.1,3.39,8.2v5.88l-16.41-16.41ZM222.53,363.28h-25.14v-6.29c0-3.47-1.41-6.62-3.68-8.89-2.27-2.27-5.41-3.68-8.88-3.68-1.85,0-3.6.4-5.18,1.12-4.35,1.96-7.38,6.32-7.39,11.41v6.32h-24.65v-24.65h25.14v-25.14h24.15v25.14h25.63v24.65Z"/>
        <path class="cls-15" d="M346.65,337.45l-25.14-25.14-33.47-33.47-.29-.29h-26.52v25.13h-25.13v26.52l.29.29,33.47,33.49.29.29h26.52v-7.3c.01-4.17,2.29-7.97,5.87-10l17.31,17.31h27.1v-26.52l-.29-.29ZM321.31,313.49l24.16,24.16h-24.16v-24.16ZM320.33,312.51h-24.45l-32.98-32.98h24.45l32.98,32.98ZM262.2,303.96v-23.74l33,33v23.76l-33-33.01ZM294.5,337.65h-23.75l-32.99-33h23.74l32.99,33ZM262.2,279.53h0ZM237.08,304.65h0ZM237.08,329.8v-24.45l32.98,33v24.45l-32.98-33ZM303.43,346.47s.03-.02.05-.03c1.51-.69,3.12-1.04,4.78-1.04,3.1,0,6,1.21,8.19,3.39,2.19,2.19,3.39,5.1,3.39,8.2v5.88l-16.41-16.41ZM345.96,363.28h-25.14v-6.29c0-3.47-1.41-6.62-3.68-8.89-2.27-2.27-5.41-3.68-8.88-3.68-1.85,0-3.6.4-5.18,1.12-4.36,1.96-7.38,6.32-7.39,11.41v6.32h-24.65v-24.65h25.14v-25.14h24.15v25.14h25.63v24.65Z"/>
        <path class="cls-3" d="M471.83,337.45l-25.14-25.14-33.47-33.47-.29-.29h-26.52v25.13h-25.13v26.52l.29.29,33.47,33.49.29.29h26.52v-7.3c.01-4.17,2.29-7.97,5.87-10l17.31,17.31h27.1v-26.52l-.29-.29ZM446.49,313.49l24.16,24.16h-24.16v-24.16ZM445.51,312.51h-24.45l-32.98-32.98h24.45l32.98,32.98ZM387.39,303.96v-23.74l33,33v23.76l-33-33.01ZM419.68,337.65h-23.75l-32.99-33h23.74l32.99,33ZM362.26,329.8v-24.45l32.98,33v24.45l-32.98-33ZM428.62,346.47s.03-.02.05-.03c1.51-.69,3.12-1.04,4.78-1.04,3.1,0,6,1.21,8.19,3.39,2.19,2.19,3.39,5.1,3.39,8.2v5.88l-16.41-16.41ZM471.14,363.28h-25.14v-6.29c0-3.47-1.41-6.62-3.68-8.89-2.27-2.27-5.41-3.68-8.88-3.68-1.85,0-3.6.4-5.18,1.12-4.36,1.96-7.38,6.32-7.39,11.41v6.32h-24.65v-24.65h25.14v-25.14h24.15v25.14h25.63v24.65Z"/>
        <polygon class="cls-15" points="321.8 250.14 270.58 198.92 288.32 191.53 321.8 225.01 321.8 250.14"/>
        <polygon class="cls-14" points="238.05 191.53 263.19 191.53 296.67 225.01 271.53 225.01 238.05 191.53"/>
        <polygon class="cls-15" points="238.05 191.53 238.05 216.66 271.53 250.14 271.53 225.01 238.05 191.53"/>
        <polygon class="cls-14" points="263.19 166.39 288.32 166.39 346.94 225.01 321.8 225.01 263.19 166.39"/>
        <polygon class="cls-15" points="263.19 166.39 263.19 191.53 296.67 225.01 296.67 199.87 263.19 166.39"/>
        <path class="cls-13" d="M346.94,225.01h-25.14v-25.14h-25.14v25.14h-25.14v25.14h25.14v-6.32c.02-6.92,5.64-12.53,12.57-12.53s12.57,5.63,12.57,12.57v6.28h25.14v-25.14Z"/>
        <polygon class="cls-13" points="446.98 250.14 395.77 198.92 413.5 191.53 446.98 225.01 446.98 250.14"/>
        <polygon class="cls-15" points="363.23 191.53 388.37 191.53 421.85 225.01 396.71 225.01 363.23 191.53"/>
        <polygon class="cls-13" points="363.23 191.53 363.23 216.66 396.71 250.14 396.71 225.01 363.23 191.53"/>
        <polygon class="cls-15" points="388.37 166.39 413.5 166.39 472.12 225.01 446.98 225.01 388.37 166.39"/>
        <polygon class="cls-13" points="388.37 166.39 388.37 191.53 421.85 225.01 421.85 199.87 388.37 166.39"/>
        <path class="cls-14" d="M472.12,225.01h-25.14v-25.14h-25.14v25.14h-25.14v25.14h25.14v-6.32c.02-6.92,5.64-12.53,12.57-12.53s12.57,5.63,12.57,12.57v6.28h25.14v-25.14Z"/>
      </g>
    </g>
  </g>
</svg>