<?xml version="1.0" encoding="UTF-8"?>
<svg id="Layer_2" data-name="Layer 2" xmlns="http://www.w3.org/2000/svg" xmlns:xlink="http://www.w3.org/1999/xlink" viewBox="0 0 841.89 595.28">
  <defs>
    <style>
      .cls-1, .cls-2 {
        fill: none;
      }

      .cls-3 {
        font-family: Montserrat-BoldItalic, 'Montserrat BoldItalic';
      }

      .cls-3, .cls-4 {
        font-weight: 700;
      }

      .cls-3, .cls-5, .cls-6 {
        font-style: italic;
      }

      .cls-3, .cls-7 {
        font-size: 10px;
      }

      .cls-8 {
        fill: #e6332b;
      }

      .cls-4 {
        font-family: AXIS-ExtraBold, 'AXIS ExtraBold';
      }

      .cls-4, .cls-5, .cls-6 {
        font-size: 12px;
      }

      .cls-2 {
        stroke: #1d1d1b;
        stroke-miterlimit: 10;
        stroke-width: .5px;
      }

      .cls-5 {
        font-family: Montserrat-ThinItalic, 'Montserrat ThinItalic';
        font-weight: 200;
      }

      .cls-9 {
        fill: #1d1d1b;
      }

      .cls-10 {
        letter-spacing: .13em;
      }

      .cls-11 {
        letter-spacing: .13em;
      }

      .cls-12 {
        letter-spacing: .13em;
      }

      .cls-7 {
        font-family: Montserrat-Regular, 'Montserrat Regular';
      }

      .cls-13 {
        letter-spacing: 0em;
      }

      .cls-14 {
        letter-spacing: 0em;
      }

      .cls-15 {
        clip-path: url(#clippath-1);
      }

      .cls-16 {
        letter-spacing: 0em;
      }

      .cls-17 {
        letter-spacing: 0em;
      }

      .cls-18 {
        letter-spacing: 0em;
      }

      .cls-19 {
        letter-spacing: 0em;
      }

      .cls-20 {
        fill: #878787;
        font-family: Montserrat-Light, 'Montserrat Light';
        font-size: 9px;
      }

      .cls-20, .cls-6 {
        font-weight: 300;
      }

      .cls-6 {
        font-family: Montserrat-LightItalic, 'Montserrat LightItalic';
      }

      .cls-21 {
        letter-spacing: -.02em;
      }

      .cls-22 {
        letter-spacing: -.02em;
      }

      .cls-23 {
        letter-spacing: -.02em;
      }

      .cls-24 {
        letter-spacing: -.01em;
      }

      .cls-25 {
        letter-spacing: -.01em;
      }

      .cls-26 {
        letter-spacing: -.05em;
      }

      .cls-27 {
        letter-spacing: -.03em;
      }

      .cls-28 {
        letter-spacing: 0em;
      }

      .cls-29 {
        letter-spacing: 0em;
      }

      .cls-30 {
        letter-spacing: 0em;
      }

      .cls-31 {
        letter-spacing: 0em;
      }

      .cls-32 {
        letter-spacing: 0em;
      }

      .cls-33 {
        letter-spacing: -.01em;
      }

      .cls-34 {
        letter-spacing: 0em;
      }

      .cls-35 {
        letter-spacing: 0em;
      }

      .cls-36 {
        letter-spacing: 0em;
      }

      .cls-37 {
        letter-spacing: 0em;
      }

      .cls-38 {
        letter-spacing: 0em;
      }

      .cls-39 {
        letter-spacing: 0em;
      }

      .cls-40 {
        letter-spacing: 0em;
      }

      .cls-41 {
        clip-path: url(#clippath);
      }

      .cls-42 {
        letter-spacing: .01em;
      }

      .cls-43 {
        letter-spacing: 0em;
      }
    </style>
    <clipPath id="clippath">
      <rect class="cls-1" width="841.89" height="595.28"/>
    </clipPath>
    <clipPath id="clippath-1">
      <rect class="cls-1" width="841.89" height="595.28"/>
    </clipPath>
  </defs>
  <g id="Layer_1-2" data-name="Layer 1">
    <g class="cls-41">
      <text class="cls-4" transform="translate(109.72 102.13)"><tspan x="0" y="0"> </tspan></text>
      <text class="cls-4" transform="translate(112.56 102.13)"><tspan x="0" y="0">English </tspan><tspan class="cls-27" x="38.87" y="0">L</tspan><tspan x="44.12" y="0">og</tspan><tspan class="cls-27" x="57.42" y="0">o</tspan><tspan x="63.6" y="0">Type</tspan></text>
      <text class="cls-6" transform="translate(112.56 84.14)"><tspan x="0" y="0">Chia</tspan><tspan class="cls-34" x="22.21" y="0">c</tspan><tspan x="27.48" y="0">o</tspan></text>
      <text class="cls-5" transform="translate(154.46 84.14)"><tspan x="0" y="0" xml:space="preserve"> B</tspan><tspan class="cls-24" x="9.05" y="0">r</tspan><tspan class="cls-13" x="12.79" y="0">anding Guidelines | </tspan><tspan class="cls-21" x="111.69" y="0">V</tspan><tspan x="118.1" y="0">isual Identi</tspan><tspan class="cls-34" x="172.52" y="0">t</tspan><tspan x="176.38" y="0">y</tspan></text>
      <text class="cls-20" transform="translate(685.19 488.49)"><tspan class="cls-26" x="0" y="0">V</tspan><tspan x="4.54" y="0">e</tspan><tspan class="cls-31" x="9.04" y="0">r</tspan><tspan x="11.95" y="0">sion</tspan></text>
      <text class="cls-20" transform="translate(718.05 488.49)"><tspan x="0" y="0"> </tspan></text>
      <text class="cls-20" transform="translate(720.36 488.49)"><tspan x="0" y="0">01</tspan></text>
      <line class="cls-2" x1="113.37" y1="113.39" x2="728.5" y2="113.39"/>
      <text class="cls-7" transform="translate(431.54 286.23)"><tspan x="0" y="0">The</tspan><tspan class="cls-32" x="15.53" y="0"> </tspan><tspan class="cls-39" x="17.61" y="0">C</tspan><tspan x="23.4" y="0">h</tspan><tspan class="cls-39" x="28.95" y="0">i</tspan><tspan class="cls-17" x="31.28" y="0">a</tspan><tspan class="cls-35" x="36.11" y="0">c</tspan><tspan class="cls-39" x="40.5" y="0">o</tspan><tspan class="cls-40" x="45.98" y="0"> </tspan><tspan class="cls-36" x="48.07" y="0">t</tspan><tspan x="51.28" y="0">y</tspan><tspan class="cls-39" x="55.99" y="0">p</tspan><tspan x="61.67" y="0">e</tspan><tspan class="cls-32" x="66.68" y="0"> </tspan><tspan x="68.76" y="0">i</tspan><tspan class="cls-39" x="71.1" y="0">s</tspan><tspan class="cls-40" x="75.05" y="0"> </tspan><tspan x="77.14" y="0">the</tspan><tspan class="cls-30" x="91.01" y="0"> </tspan><tspan class="cls-19" x="93.09" y="0">p</tspan><tspan class="cls-37" x="98.78" y="0">r</tspan><tspan x="101.97" y="0">im</tspan><tspan class="cls-38" x="112.65" y="0">a</tspan><tspan class="cls-42" x="117.46" y="0">r</tspan><tspan x="120.87" y="0">y</tspan><tspan class="cls-40" x="125.58" y="0"> </tspan><tspan class="cls-37" x="127.67" y="0">L</tspan><tspan class="cls-38" x="132.31" y="0">o</tspan><tspan x="137.79" y="0">go</tspan><tspan class="cls-36" x="148.87" y="0">t</tspan><tspan x="152.08" y="0">ype</tspan><tspan class="cls-40" x="167.49" y="0"> </tspan><tspan class="cls-38" x="169.58" y="0">o</tspan><tspan x="175.06" y="0">f</tspan><tspan class="cls-40" x="177.98" y="0"> </tspan><tspan x="180.07" y="0">our</tspan><tspan class="cls-40" x="194.34" y="0"> </tspan><tspan class="cls-35" x="196.43" y="0">c</tspan><tspan class="cls-39" x="200.82" y="0">o</tspan><tspan class="cls-37" x="206.3" y="0">r</tspan><tspan class="cls-39" x="209.49" y="0">p</tspan><tspan x="215.17" y="0">o</tspan><tspan class="cls-35" x="220.66" y="0">r</tspan><tspan class="cls-39" x="223.84" y="0">a</tspan><tspan x="228.65" y="0">t</tspan><tspan class="cls-39" x="231.96" y="0">i</tspan><tspan x="234.29" y="0">on.</tspan></text>
      <text class="cls-7" transform="translate(431.54 298.23)"><tspan x="0" y="0">It</tspan><tspan class="cls-12" x="5.7" y="0"> </tspan><tspan x="9.13" y="0">i</tspan><tspan class="cls-39" x="11.47" y="0">s</tspan><tspan class="cls-11" x="15.42" y="0"> </tspan><tspan class="cls-39" x="18.86" y="0">s</tspan><tspan x="22.81" y="0">im</tspan><tspan class="cls-39" x="33.49" y="0">p</tspan><tspan x="39.17" y="0">le,</tspan><tspan class="cls-11" x="48.61" y="0"> </tspan><tspan class="cls-29" x="52.05" y="0">A</tspan><tspan x="58.11" y="0">t</tspan><tspan class="cls-12" x="61.42" y="0"> </tspan><tspan class="cls-19" x="64.85" y="0">the</tspan><tspan class="cls-11" x="78.72" y="0"> </tspan><tspan x="82.16" y="0">s</tspan><tspan class="cls-39" x="86.12" y="0">a</tspan><tspan class="cls-17" x="90.93" y="0">m</tspan><tspan x="99.28" y="0">e</tspan><tspan class="cls-10" x="104.29" y="0"> </tspan><tspan x="107.73" y="0">t</tspan><tspan class="cls-39" x="111.04" y="0">i</tspan><tspan class="cls-17" x="113.37" y="0">m</tspan><tspan x="121.72" y="0">e,</tspan><tspan class="cls-11" x="128.8" y="0"> </tspan><tspan class="cls-19" x="132.24" y="0">the</tspan><tspan class="cls-10" x="146.11" y="0"> </tspan><tspan class="cls-39" x="149.55" y="0">d</tspan><tspan x="155.18" y="0">isti</tspan><tspan class="cls-16" x="167.13" y="0">n</tspan><tspan class="cls-43" x="172.69" y="0">c</tspan><tspan class="cls-19" x="177.22" y="0">ti</tspan><tspan class="cls-22" x="182.87" y="0">v</tspan><tspan class="cls-19" x="187.53" y="0">e</tspan><tspan class="cls-11" x="192.54" y="0"> </tspan><tspan x="195.98" y="0">sign</tspan><tspan class="cls-39" x="213.42" y="0">a</tspan><tspan x="218.23" y="0">tu</tspan><tspan class="cls-33" x="227.05" y="0">r</tspan><tspan x="230.19" y="0">e</tspan><tspan class="cls-11" x="235.2" y="0"> </tspan><tspan x="238.64" y="0">of </tspan></text>
      <text class="cls-7" transform="translate(431.54 310.23)"><tspan x="0" y="0">t</tspan><tspan class="cls-16" x="3.31" y="0">h</tspan><tspan x="8.87" y="0">e </tspan><tspan class="cls-39" x="16" y="0">b</tspan><tspan class="cls-35" x="21.68" y="0">r</tspan><tspan x="24.86" y="0">a</tspan><tspan class="cls-17" x="29.68" y="0">n</tspan><tspan x="35.24" y="0">d</tspan><tspan class="cls-39" x="40.88" y="0" xml:space="preserve"> i</tspan><tspan x="45.32" y="0">s</tspan><tspan class="cls-38" x="49.28" y="0"> </tspan><tspan x="51.39" y="0">i</tspan><tspan class="cls-16" x="53.73" y="0">n</tspan><tspan class="cls-37" x="59.29" y="0">c</tspan><tspan class="cls-39" x="63.69" y="0">l</tspan><tspan x="66.04" y="0">uded</tspan><tspan class="cls-38" x="87.84" y="0" xml:space="preserve"> i</tspan><tspan x="92.28" y="0">n</tspan><tspan class="cls-39" x="97.83" y="0"> </tspan><tspan x="99.94" y="0">t</tspan><tspan class="cls-17" x="103.25" y="0">h</tspan><tspan class="cls-19" x="108.81" y="0">e </tspan><tspan class="cls-39" x="115.94" y="0">l</tspan><tspan class="cls-14" x="118.29" y="0">og</tspan><tspan class="cls-38" x="129.37" y="0">o</tspan><tspan class="cls-36" x="134.85" y="0">t</tspan><tspan x="138.06" y="0">ype.</tspan></text>
      <text class="cls-7" transform="translate(431.54 350.01)"><tspan x="0" y="0">Use in smaller scales</tspan></text>
      <text class="cls-3" transform="translate(112.77 489.76)"><tspan x="0" y="0">Thin </tspan></text>
      <text class="cls-7" transform="translate(138.6 489.76)"><tspan x="0" y="0">A</tspan><tspan class="cls-18" x="6.12" y="0">l</tspan><tspan class="cls-23" x="8.5" y="0">t</tspan><tspan x="11.63" y="0">e</tspan><tspan class="cls-28" x="16.64" y="0">r</tspan><tspan x="19.84" y="0">nati</tspan><tspan class="cls-25" x="35.86" y="0">v</tspan><tspan x="40.53" y="0">e</tspan></text>
      <path class="cls-8" d="M1,1h839.89v593.28H1V1ZM0,595.28h841.89V0H0v595.28Z"/>
      <polygon class="cls-9" points="180.82 311.57 180.82 297.02 159.58 297.02 159.58 311.57 155.42 311.57 155.42 277.8 159.58 277.8 159.58 293.65 180.82 293.65 180.82 277.8 184.99 277.8 184.99 311.57 180.82 311.57"/>
      <rect class="cls-9" x="180.82" y="307.4" width="4.17" height="4.17"/>
      <rect class="cls-9" x="184.99" y="307.4" width="4.17" height="4.17"/>
      <rect class="cls-9" x="308.92" y="292.65" width="4.17" height="4.17"/>
      <g class="cls-15">
        <path class="cls-9" d="M130.92,312.27c-2.39,0-4.68-.47-6.79-1.38-2.13-.93-4.01-2.2-5.59-3.78-1.58-1.58-2.85-3.46-3.78-5.59-.92-2.11-1.38-4.39-1.38-6.78s.47-4.68,1.38-6.78c.92-2.13,2.19-4.01,3.78-5.59,1.58-1.58,3.46-2.85,5.59-3.78,2.11-.92,4.39-1.38,6.79-1.38,1.63,0,3.22.22,4.74.65,1.52.43,2.95,1.05,4.26,1.83,1.31.78,2.52,1.74,3.6,2.83.69.7,1.31,1.45,1.86,2.25l-3.96,1.6c-.42-.53-.88-1.05-1.38-1.53-.79-.77-1.68-1.46-2.62-2.04-.97-.59-2-1.06-3.07-1.4-1.1-.34-2.25-.51-3.42-.51-1.87,0-3.64.39-5.28,1.16-1.61.76-3.02,1.78-4.2,3.04-1.18,1.25-2.13,2.73-2.83,4.4-.7,1.68-1.06,3.46-1.06,5.27s.36,3.63,1.06,5.3c.7,1.65,1.65,3.12,2.82,4.37,1.18,1.26,2.6,2.28,4.2,3.04,1.63.77,3.41,1.16,5.28,1.16,1.17,0,2.32-.17,3.42-.51,1.07-.33,2.11-.8,3.07-1.4.96-.59,1.84-1.29,2.63-2.08.49-.49.95-1.01,1.37-1.55l3.98,1.61c-.56.82-1.19,1.59-1.88,2.29-1.08,1.09-2.29,2.05-3.6,2.83-1.3.78-2.73,1.4-4.26,1.83-1.52.43-3.11.65-4.74.65"/>
        <rect class="cls-9" x="201.73" y="277.85" width="4.17" height="33.72"/>
        <path class="cls-9" d="M244.7,311.57l-2.85-5.75h-19.02l-2.8,5.75h-4.4l16.73-32.7,16.73,32.7h-4.4ZM224.87,302.55h14.93l-7.43-15.78-7.5,15.78Z"/>
        <path class="cls-9" d="M270.51,312.27c-2.39,0-4.67-.47-6.79-1.38-2.13-.93-4.01-2.2-5.59-3.78-1.58-1.58-2.85-3.46-3.78-5.59-.92-2.11-1.38-4.39-1.38-6.78s.47-4.68,1.38-6.78c.92-2.13,2.2-4.01,3.78-5.59,1.58-1.58,3.46-2.85,5.59-3.78,2.11-.92,4.39-1.38,6.79-1.38,1.63,0,3.22.22,4.74.65,1.52.43,2.95,1.05,4.26,1.83,1.31.78,2.52,1.74,3.6,2.83.69.7,1.31,1.45,1.86,2.25l-3.96,1.6c-.42-.53-.88-1.05-1.38-1.53-.79-.77-1.68-1.46-2.62-2.04-.97-.59-2-1.06-3.07-1.4-1.1-.34-2.25-.51-3.42-.51-1.87,0-3.64.39-5.28,1.16-1.61.76-3.02,1.78-4.2,3.04-1.18,1.25-2.13,2.73-2.83,4.4-.7,1.68-1.06,3.46-1.06,5.27s.36,3.63,1.06,5.3c.7,1.65,1.65,3.12,2.83,4.37,1.18,1.26,2.6,2.28,4.2,3.04,1.63.77,3.41,1.16,5.28,1.16,1.17,0,2.32-.17,3.42-.51,1.07-.33,2.11-.8,3.07-1.4.95-.59,1.84-1.29,2.64-2.08.49-.49.95-1.01,1.37-1.55l3.98,1.61c-.56.82-1.19,1.59-1.88,2.29-1.08,1.09-2.29,2.05-3.6,2.83-1.3.78-2.73,1.4-4.26,1.83-1.52.43-3.11.65-4.74.65"/>
        <path class="cls-9" d="M310.98,312.27c-2.39,0-4.68-.47-6.79-1.38-2.13-.92-4.01-2.19-5.59-3.78s-2.85-3.46-3.78-5.59c-.92-2.11-1.38-4.41-1.38-6.83s.47-4.68,1.39-6.81c.92-2.14,2.19-4.03,3.77-5.61s3.46-2.85,5.59-3.78c2.11-.92,4.39-1.38,6.79-1.38s4.73.47,6.83,1.38c2.12.92,4,2.19,5.59,3.78s2.85,3.47,3.78,5.61c.92,2.13,1.38,4.42,1.38,6.81s-.47,4.73-1.38,6.83c-.92,2.12-2.19,4.01-3.78,5.59-1.58,1.58-3.46,2.85-5.59,3.78-2.11.92-4.41,1.38-6.83,1.38M311.01,280.82c-1.87,0-3.64.39-5.27,1.16-1.6.76-3.02,1.77-4.21,3.03-1.2,1.26-2.16,2.74-2.85,4.41-.7,1.68-1.06,3.46-1.06,5.27s.36,3.63,1.06,5.3c.7,1.65,1.65,3.13,2.84,4.4,1.2,1.28,2.62,2.3,4.22,3.06,1.63.77,3.4,1.16,5.27,1.16s3.64-.39,5.27-1.16c1.6-.76,3.02-1.78,4.22-3.06,1.19-1.27,2.15-2.75,2.84-4.4.7-1.67,1.06-3.45,1.06-5.3s-.36-3.59-1.06-5.27c-.7-1.67-1.66-3.15-2.85-4.41-1.2-1.25-2.61-2.27-4.21-3.03-1.63-.77-3.4-1.16-5.27-1.16"/>
      </g>
    </g>
  </g>
</svg>