<?xml version="1.0" encoding="UTF-8"?>
<svg id="Layer_2" data-name="Layer 2" xmlns="http://www.w3.org/2000/svg" xmlns:xlink="http://www.w3.org/1999/xlink" viewBox="0 0 841.89 595.28">
  <defs>
    <style>
      .cls-1, .cls-2 {
        fill: none;
      }

      .cls-3 {
        font-family: Montserrat-BoldItalic, 'Montserrat BoldItalic';
      }

      .cls-3, .cls-4 {
        font-weight: 700;
      }

      .cls-3, .cls-5, .cls-6 {
        font-style: italic;
      }

      .cls-3, .cls-7 {
        font-size: 10px;
      }

      .cls-8 {
        fill: #e6332b;
      }

      .cls-4 {
        font-family: AXIS-ExtraBold, 'AXIS ExtraBold';
      }

      .cls-4, .cls-5, .cls-6 {
        font-size: 12px;
      }

      .cls-2 {
        stroke: #1d1d1b;
        stroke-miterlimit: 10;
        stroke-width: .5px;
      }

      .cls-5 {
        font-family: Montserrat-ThinItalic, 'Montserrat ThinItalic';
        font-weight: 200;
      }

      .cls-9 {
        fill: #1d1d1b;
      }

      .cls-10 {
        letter-spacing: .33em;
      }

      .cls-11 {
        letter-spacing: .33em;
      }

      .cls-7 {
        font-family: Montserrat-Regular, 'Montserrat Regular';
      }

      .cls-12 {
        letter-spacing: 0em;
      }

      .cls-13 {
        letter-spacing: 0em;
      }

      .cls-14 {
        letter-spacing: 0em;
      }

      .cls-15 {
        clip-path: url(#clippath-1);
      }

      .cls-16 {
        clip-path: url(#clippath-3);
      }

      .cls-17 {
        clip-path: url(#clippath-4);
      }

      .cls-18 {
        clip-path: url(#clippath-2);
      }

      .cls-19 {
        letter-spacing: 0em;
      }

      .cls-20 {
        letter-spacing: 0em;
      }

      .cls-21 {
        fill: #878787;
        font-family: Montserrat-Light, 'Montserrat Light';
        font-size: 9px;
      }

      .cls-21, .cls-6 {
        font-weight: 300;
      }

      .cls-6 {
        font-family: Montserrat-LightItalic, 'Montserrat LightItalic';
      }

      .cls-22 {
        letter-spacing: -.06em;
      }

      .cls-23 {
        letter-spacing: -.14em;
      }

      .cls-24 {
        letter-spacing: -.02em;
      }

      .cls-25 {
        letter-spacing: -.02em;
      }

      .cls-26 {
        letter-spacing: -.02em;
      }

      .cls-27 {
        letter-spacing: -.02em;
      }

      .cls-28 {
        letter-spacing: -.02em;
      }

      .cls-29 {
        letter-spacing: -.01em;
      }

      .cls-30 {
        letter-spacing: -.02em;
      }

      .cls-31 {
        letter-spacing: -.02em;
      }

      .cls-32 {
        letter-spacing: -.01em;
      }

      .cls-33 {
        letter-spacing: -.01em;
      }

      .cls-34 {
        letter-spacing: -.05em;
      }

      .cls-35 {
        letter-spacing: -.04em;
      }

      .cls-36 {
        letter-spacing: -.04em;
      }

      .cls-37 {
        letter-spacing: -.03em;
      }

      .cls-38 {
        letter-spacing: 0em;
      }

      .cls-39 {
        letter-spacing: 0em;
      }

      .cls-40 {
        letter-spacing: -.01em;
      }

      .cls-41 {
        letter-spacing: 0em;
      }

      .cls-42 {
        letter-spacing: -.01em;
      }

      .cls-43 {
        letter-spacing: -.01em;
      }

      .cls-44 {
        letter-spacing: 0em;
      }

      .cls-45 {
        letter-spacing: 0em;
      }

      .cls-46 {
        letter-spacing: 0em;
      }

      .cls-47 {
        letter-spacing: 0em;
      }

      .cls-48 {
        letter-spacing: 0em;
      }

      .cls-49 {
        letter-spacing: 0em;
      }

      .cls-50 {
        letter-spacing: 0em;
      }

      .cls-51 {
        letter-spacing: 0em;
      }

      .cls-52 {
        letter-spacing: .02em;
      }

      .cls-53 {
        letter-spacing: .02em;
      }

      .cls-54 {
        clip-path: url(#clippath);
      }
    </style>
    <clipPath id="clippath">
      <rect class="cls-1" width="841.89" height="595.28"/>
    </clipPath>
    <clipPath id="clippath-1">
      <rect class="cls-1" width="841.89" height="595.28"/>
    </clipPath>
    <clipPath id="clippath-2">
      <rect class="cls-1" width="841.89" height="595.28"/>
    </clipPath>
    <clipPath id="clippath-3">
      <rect class="cls-1" width="841.89" height="595.28"/>
    </clipPath>
    <clipPath id="clippath-4">
      <rect class="cls-1" width="841.89" height="595.28"/>
    </clipPath>
  </defs>
  <g id="Layer_1-2" data-name="Layer 1">
    <g class="cls-54">
      <polygon class="cls-9" points="328.46 395.17 328.46 399.67 338.17 399.67 338.17 402.8 328.46 402.8 328.46 407.03 338.17 407.03 338.17 410.13 325.01 410.13 325.01 392.12 338.17 392.12 338.17 395.17 328.46 395.17"/>
      <polygon class="cls-9" points="391.55 406.72 391.55 392.12 388.11 392.12 388.11 399.92 379.23 399.92 379.23 392.12 375.79 392.12 375.79 410.13 379.23 410.13 379.23 402.97 388.11 402.97 388.11 410.13 391.52 410.13 391.55 410.13 394.92 410.13 394.92 406.72 391.55 406.72"/>
      <g class="cls-15">
        <path class="cls-9" d="M130.84,405.72c-.39.72-.88,1.37-1.45,1.96-.57.58-1.21,1.08-1.91,1.5-.7.42-1.45.74-2.26.97-.81.23-1.65.34-2.52.34-1.28,0-2.49-.24-3.62-.74-1.13-.49-2.12-1.16-2.96-2-.85-.84-1.51-1.83-2-2.96-.49-1.13-.74-2.34-.74-3.62s.25-2.48.74-3.62c.49-1.13,1.16-2.12,2-2.96.84-.84,1.83-1.51,2.96-2,1.13-.49,2.34-.74,3.62-.74.87,0,1.71.11,2.52.34.81.23,1.57.55,2.26.97.7.42,1.33.92,1.91,1.5.57.58,1.06,1.23,1.45,1.93l-3.22,1.3c-.26-.39-.57-.76-.92-1.11-.35-.35-.74-.65-1.17-.91-.43-.26-.88-.47-1.35-.62-.48-.15-.97-.22-1.48-.22-.82,0-1.59.17-2.3.51-.71.34-1.33.78-1.86,1.34-.52.56-.94,1.21-1.25,1.96-.31.75-.47,1.52-.47,2.32s.16,1.6.47,2.34c.31.74.73,1.38,1.25,1.94.53.56,1.14,1,1.86,1.34.71.34,1.48.5,2.3.5.51,0,1-.07,1.48-.22.47-.15.93-.35,1.35-.61.43-.26.82-.57,1.17-.92.35-.35.66-.73.92-1.12l3.22,1.3Z"/>
        <path class="cls-9" d="M156.53,410.15l9.2-17.98h.35l9.2,17.98h-3.74l-1.4-2.83h-8.49l-1.38,2.83h-3.74ZM163.32,404.32h5.14l-2.56-5.44-2.58,5.44Z"/>
        <polygon class="cls-9" points="193.94 410.15 182.11 399.45 182.11 410.15 178.67 410.15 178.67 392.17 179.04 392.17 190.87 403.04 190.87 392.17 194.31 392.17 194.31 410.15 193.94 410.15"/>
        <path class="cls-9" d="M217.01,400.31c-.02.34-.02.66-.02.96-.02.26-.02.52-.02.77s0,.45-.02.58c-.1,1.13-.41,2.18-.92,3.15-.52.97-1.18,1.8-1.99,2.5-.81.7-1.75,1.24-2.8,1.63-1.06.39-2.17.59-3.33.59-1.28,0-2.48-.25-3.62-.74-1.13-.49-2.12-1.16-2.97-2.01-.85-.84-1.52-1.83-2.02-2.96-.5-1.13-.74-2.34-.74-3.62s.25-2.49.74-3.63c.49-1.14,1.17-2.13,2.02-2.98.85-.84,1.84-1.51,2.97-2,1.13-.49,2.34-.74,3.62-.74,1.62,0,3.11.38,4.46,1.13,1.35.75,2.45,1.76,3.28,3.03l-2.95,1.8c-.52-.77-1.21-1.42-2.05-1.94-.85-.52-1.76-.79-2.74-.79-.82,0-1.59.17-2.3.51-.71.34-1.34.78-1.87,1.34-.53.56-.95,1.21-1.27,1.96-.31.75-.47,1.52-.47,2.32s.16,1.6.47,2.34c.31.74.73,1.39,1.27,1.94.53.56,1.16,1.01,1.87,1.34.71.34,1.48.5,2.3.5.62,0,1.22-.09,1.79-.28.57-.19,1.1-.46,1.57-.8.48-.34.89-.75,1.24-1.23.35-.48.61-1,.77-1.57h-6.64v-3.1h10.38Z"/>
        <polygon class="cls-9" points="224.62 395.2 224.62 399.7 234.33 399.7 234.33 402.82 224.62 402.82 224.62 407.05 234.33 407.05 234.33 410.15 221.17 410.15 221.17 392.15 234.33 392.15 234.33 395.2 224.62 395.2"/>
        <polygon class="cls-9" points="402.16 395.17 402.16 399.67 411.87 399.67 411.87 402.8 402.16 402.8 402.16 407.03 411.87 407.03 411.87 410.13 398.71 410.13 398.71 392.12 411.87 392.12 411.87 395.17 402.16 395.17"/>
        <rect class="cls-9" x="259.76" y="392.16" width="3.44" height="17.98"/>
        <polygon class="cls-9" points="284.19 410.14 272.36 399.44 272.36 410.14 268.91 410.14 268.91 392.16 269.28 392.16 281.11 403.03 281.11 392.16 284.55 392.16 284.55 410.14 284.19 410.14"/>
        <path class="cls-9" d="M303.38,410.13l9.2-17.98h.35l9.2,17.98h-3.74l-1.4-2.83h-8.48l-1.38,2.83h-3.74ZM310.17,404.3h5.14l-2.56-5.44-2.58,5.44Z"/>
        <path class="cls-9" d="M342.17,407.76l1.87-2.76c.9.62,1.83,1.16,2.79,1.61.96.45,1.96.68,3.01.68.56,0,1.05-.07,1.47-.21.43-.14.79-.32,1.08-.54.3-.22.52-.47.66-.76.15-.29.22-.57.22-.85,0-.36-.11-.67-.33-.92-.22-.25-.52-.46-.89-.63-.37-.16-.8-.3-1.3-.42-.5-.11-1.02-.22-1.56-.32-.36-.07-.78-.14-1.25-.23-.48-.09-.97-.21-1.48-.37-.51-.15-1.01-.36-1.5-.61-.49-.25-.93-.57-1.33-.96-.39-.38-.71-.84-.95-1.38-.24-.53-.36-1.16-.36-1.88,0-1.05.21-1.92.64-2.62.43-.7.97-1.25,1.63-1.65.66-.4,1.4-.68,2.21-.85.81-.16,1.59-.25,2.35-.25s1.43.05,2.02.15c.59.1,1.14.24,1.65.43.51.19,1,.43,1.49.71.48.29,1.01.63,1.56,1.02l-1.92,2.71c-.85-.59-1.67-1.04-2.46-1.35-.79-.31-1.62-.47-2.48-.47-.3,0-.63.04-1.01.11-.38.07-.73.19-1.07.36-.34.16-.61.37-.83.63-.22.25-.33.56-.33.92s.13.66.39.91c.26.24.6.45,1.01.61.41.17.86.3,1.35.42.49.12.97.23,1.43.35.34.08.75.16,1.22.25.47.08.95.2,1.45.34.5.15,1,.35,1.49.59.49.25.93.56,1.32.95.38.39.7.86.93,1.43.24.57.36,1.25.36,2.05,0,.93-.17,1.75-.49,2.43-.33.69-.79,1.26-1.4,1.71-.61.45-1.33.79-2.16,1.02-.84.23-1.76.34-2.78.34-.93,0-1.76-.07-2.47-.21-.71-.14-1.37-.33-1.96-.57-.59-.24-1.15-.52-1.67-.85-.52-.33-1.07-.69-1.62-1.08"/>
        <polygon class="cls-9" points="372.22 395.17 367.08 395.17 367.08 410.13 363.64 410.13 363.64 395.17 358.47 395.17 358.47 392.12 372.22 392.12 372.22 395.17"/>
        <polygon class="cls-9" points="429.15 395.17 424.01 395.17 424.01 410.13 420.57 410.13 420.57 395.17 415.4 395.17 415.4 392.12 429.15 392.12 429.15 395.17"/>
        <rect class="cls-9" x="432.68" y="392.15" width="3.44" height="17.98"/>
        <path class="cls-9" d="M457.13,405.7c-.39.72-.88,1.37-1.45,1.96-.57.58-1.21,1.08-1.91,1.5-.7.42-1.45.74-2.26.97-.81.23-1.65.34-2.52.34-1.28,0-2.49-.24-3.62-.74-1.13-.49-2.12-1.16-2.96-2-.85-.84-1.51-1.83-2.01-2.96-.49-1.13-.74-2.34-.74-3.62s.25-2.48.74-3.62c.49-1.13,1.16-2.12,2.01-2.96s1.83-1.51,2.96-2c1.13-.49,2.34-.74,3.62-.74.87,0,1.71.11,2.52.34.81.23,1.57.55,2.26.97.7.42,1.33.92,1.91,1.5.57.58,1.06,1.23,1.45,1.93l-3.22,1.3c-.26-.39-.57-.76-.92-1.11-.35-.35-.74-.65-1.17-.91-.43-.26-.88-.47-1.35-.62-.48-.15-.97-.22-1.48-.22-.82,0-1.59.17-2.3.51-.71.34-1.33.78-1.86,1.34-.52.56-.94,1.21-1.26,1.96-.31.75-.47,1.52-.47,2.32s.16,1.6.47,2.34c.31.74.73,1.38,1.26,1.94.52.56,1.14,1,1.86,1.34.71.34,1.48.5,2.3.5.51,0,1-.07,1.48-.22.48-.15.93-.35,1.35-.61.43-.26.82-.57,1.17-.92.35-.35.66-.73.92-1.12l3.22,1.3Z"/>
        <path class="cls-9" d="M459.69,407.76l1.87-2.76c.9.62,1.83,1.16,2.79,1.61.96.45,1.96.68,3.01.68.56,0,1.05-.07,1.47-.21.43-.14.79-.32,1.08-.54.3-.22.52-.47.66-.76.15-.29.22-.57.22-.85,0-.36-.11-.67-.33-.92-.22-.25-.52-.46-.89-.63-.37-.16-.8-.3-1.3-.42-.5-.11-1.02-.22-1.56-.32-.36-.07-.78-.14-1.25-.23-.48-.09-.97-.21-1.48-.37-.51-.15-1.01-.36-1.5-.61-.49-.25-.93-.57-1.33-.96-.39-.38-.71-.84-.95-1.38-.24-.53-.36-1.16-.36-1.88,0-1.05.21-1.92.64-2.62.43-.7.97-1.25,1.63-1.65.66-.4,1.4-.68,2.21-.85.81-.16,1.59-.25,2.35-.25s1.43.05,2.02.15c.59.1,1.14.24,1.65.43.51.19,1,.43,1.49.71.48.29,1.01.63,1.56,1.02l-1.92,2.71c-.85-.59-1.67-1.04-2.46-1.35-.79-.31-1.62-.47-2.48-.47-.3,0-.63.04-1.01.11-.38.07-.73.19-1.07.36-.34.16-.61.37-.83.63-.22.25-.33.56-.33.92s.13.66.39.91c.26.24.6.45,1.01.61.41.17.86.3,1.35.42.49.12.97.23,1.43.35.35.08.75.16,1.22.25.47.08.95.2,1.45.34.5.15,1,.35,1.49.59.49.25.93.56,1.32.95.38.39.7.86.93,1.43.24.57.36,1.25.36,2.05,0,.93-.17,1.75-.49,2.43-.33.69-.79,1.26-1.4,1.71-.61.45-1.33.79-2.16,1.02-.84.23-1.76.34-2.78.34-.93,0-1.76-.07-2.47-.21-.71-.14-1.37-.33-1.96-.57-.59-.24-1.15-.52-1.67-.85-.52-.33-1.07-.69-1.62-1.08"/>
        <polygon class="cls-9" points="149.81 406.75 149.81 392.15 146.37 392.15 146.37 399.94 137.49 399.94 137.49 392.15 134.05 392.15 134.05 410.15 137.49 410.15 137.49 402.99 146.37 402.99 146.37 410.15 149.78 410.15 149.81 410.15 153.18 410.15 153.18 406.75 149.81 406.75"/>
        <rect class="cls-9" x="246.25" y="400.04" width="3.09" height="3.09"/>
        <rect class="cls-9" x="294.48" y="400.04" width="3.09" height="3.09"/>
        <polygon class="cls-9" points="220.99 324.23 220.99 326.55 226 326.55 226 328.16 220.99 328.16 220.99 330.35 226 330.35 226 331.94 219.22 331.94 219.22 322.66 226 322.66 226 324.23 220.99 324.23"/>
        <polygon class="cls-9" points="253.53 330.19 253.53 322.66 251.75 322.66 251.75 326.68 247.17 326.68 247.17 322.66 245.4 322.66 245.4 331.94 247.17 331.94 247.17 328.25 251.75 328.25 251.75 331.94 253.51 331.94 253.53 331.94 255.26 331.94 255.26 330.19 253.53 330.19"/>
        <path class="cls-9" d="M122.26,329.67c-.2.37-.45.71-.75,1.01-.3.3-.62.56-.98.77-.36.22-.75.38-1.17.5-.42.12-.85.18-1.3.18-.66,0-1.28-.13-1.86-.38-.58-.25-1.09-.6-1.53-1.03-.44-.43-.78-.94-1.03-1.53-.25-.58-.38-1.21-.38-1.86s.13-1.28.38-1.86c.25-.58.6-1.09,1.03-1.53s.94-.78,1.53-1.03c.58-.25,1.2-.38,1.86-.38.45,0,.88.06,1.3.18.42.12.81.29,1.17.5.36.21.69.47.98.77.3.3.54.63.75,1l-1.66.67c-.14-.2-.29-.39-.48-.57-.18-.18-.38-.33-.6-.47-.22-.14-.45-.24-.7-.32-.25-.08-.5-.11-.76-.11-.42,0-.82.09-1.19.26-.37.17-.69.4-.96.69-.27.29-.49.62-.65,1.01-.16.39-.24.79-.24,1.2s.08.82.24,1.21c.16.38.38.71.65,1,.27.29.59.52.96.69.37.17.76.26,1.19.26.26,0,.52-.04.76-.11.24-.08.48-.18.7-.32.22-.14.42-.29.6-.48s.34-.37.48-.58l1.66.67Z"/>
        <path class="cls-9" d="M135.51,331.96l4.74-9.27h.18l4.74,9.27h-1.93l-.72-1.46h-4.38l-.71,1.46h-1.93ZM139.01,328.95h2.65l-1.32-2.8-1.33,2.8Z"/>
        <polygon class="cls-9" points="154.8 331.96 148.7 326.44 148.7 331.96 146.92 331.96 146.92 322.68 147.11 322.68 153.21 328.29 153.21 322.68 154.99 322.68 154.99 331.96 154.8 331.96"/>
        <path class="cls-9" d="M166.69,326.88c0,.18-.01.34-.01.49,0,.14-.01.27-.01.4s0,.23-.01.3c-.05.58-.21,1.12-.48,1.62-.27.5-.61.93-1.03,1.29-.42.36-.9.64-1.45.84-.54.2-1.12.3-1.72.3-.66,0-1.28-.13-1.86-.38-.58-.25-1.1-.6-1.53-1.03-.44-.43-.79-.94-1.04-1.53-.26-.58-.38-1.21-.38-1.86s.13-1.28.38-1.87c.26-.59.6-1.1,1.04-1.54.44-.43.95-.78,1.53-1.03.58-.25,1.2-.38,1.86-.38.84,0,1.6.2,2.3.58.7.39,1.26.91,1.69,1.56l-1.52.93c-.27-.4-.62-.73-1.06-1-.43-.27-.91-.41-1.41-.41-.42,0-.82.09-1.19.26-.37.17-.69.4-.96.69-.28.29-.49.62-.65,1.01-.16.39-.24.79-.24,1.2s.08.82.24,1.2c.16.38.38.71.65,1,.27.29.6.52.96.69.37.17.76.26,1.19.26.32,0,.63-.05.93-.15.3-.1.57-.23.81-.41.24-.18.46-.39.64-.63.18-.24.32-.52.4-.81h-3.42v-1.6h5.35Z"/>
        <polygon class="cls-9" points="170.61 324.24 170.61 326.57 175.62 326.57 175.62 328.18 170.61 328.18 170.61 330.36 175.62 330.36 175.62 331.96 168.84 331.96 168.84 322.67 175.62 322.67 175.62 324.24 170.61 324.24"/>
        <polygon class="cls-9" points="258.99 324.23 258.99 326.55 264 326.55 264 328.16 258.99 328.16 258.99 330.35 264 330.35 264 331.94 257.22 331.94 257.22 322.66 264 322.66 264 324.23 258.99 324.23"/>
        <rect class="cls-9" x="186.57" y="322.68" width="1.77" height="9.27"/>
        <polygon class="cls-9" points="199.16 331.95 193.06 326.43 193.06 331.95 191.28 331.95 191.28 322.68 191.47 322.68 197.57 328.28 197.57 322.68 199.35 322.68 199.35 331.95 199.16 331.95"/>
        <path class="cls-9" d="M208.06,331.94l4.74-9.27h.18l4.74,9.27h-1.93l-.72-1.46h-4.38l-.71,1.46h-1.93ZM211.56,328.94h2.65l-1.32-2.8-1.33,2.8Z"/>
        <path class="cls-9" d="M228.06,330.73l.96-1.42c.46.32.94.6,1.44.83.49.23,1.01.35,1.55.35.29,0,.54-.04.76-.11.22-.07.4-.17.56-.28.15-.11.27-.24.34-.39s.11-.29.11-.44c0-.18-.06-.34-.17-.47-.11-.13-.27-.24-.46-.32-.19-.08-.41-.16-.67-.21-.26-.06-.53-.11-.81-.17-.19-.03-.4-.07-.65-.12-.24-.05-.5-.11-.76-.19-.26-.08-.52-.19-.77-.32-.25-.13-.48-.3-.68-.49-.2-.2-.37-.44-.49-.71-.12-.27-.18-.6-.18-.97,0-.54.11-.99.33-1.35.22-.36.5-.64.84-.85.34-.21.72-.35,1.14-.44.42-.08.82-.13,1.21-.13s.74.03,1.04.08c.3.05.59.12.85.22.26.1.52.22.77.37.25.15.52.32.81.53l-.99,1.4c-.44-.3-.86-.54-1.27-.7-.4-.16-.83-.24-1.28-.24-.15,0-.32.02-.52.06-.19.04-.38.1-.55.18-.17.09-.32.19-.43.32-.11.13-.17.29-.17.48s.07.34.2.47c.13.13.31.23.52.32.21.08.44.16.7.22.25.06.5.12.74.18.18.04.39.08.63.13.24.04.49.1.75.18.26.08.51.18.77.3.25.13.48.29.68.49.2.2.36.44.48.74.12.29.18.65.18,1.06,0,.48-.08.9-.25,1.26-.17.36-.41.65-.72.88-.31.23-.68.41-1.12.53-.43.12-.91.18-1.43.18-.48,0-.91-.04-1.27-.11-.37-.07-.7-.17-1.01-.29-.3-.12-.59-.27-.86-.44-.27-.17-.55-.36-.84-.56"/>
        <polygon class="cls-9" points="243.56 324.23 240.91 324.23 240.91 331.94 239.13 331.94 239.13 324.23 236.47 324.23 236.47 322.66 243.56 322.66 243.56 324.23"/>
        <polygon class="cls-9" points="272.91 324.23 270.26 324.23 270.26 331.94 268.49 331.94 268.49 324.23 265.82 324.23 265.82 322.66 272.91 322.66 272.91 324.23"/>
        <rect class="cls-9" x="274.73" y="322.67" width="1.77" height="9.27"/>
        <path class="cls-9" d="M287.34,329.66c-.2.37-.45.71-.75,1.01-.3.3-.62.56-.98.77-.36.22-.75.38-1.17.5-.42.12-.85.18-1.3.18-.66,0-1.28-.13-1.86-.38-.58-.25-1.09-.6-1.53-1.03-.44-.43-.78-.94-1.03-1.53-.25-.58-.38-1.21-.38-1.86s.13-1.28.38-1.86c.25-.58.6-1.09,1.03-1.53s.94-.78,1.53-1.03c.58-.25,1.2-.38,1.86-.38.45,0,.88.06,1.3.18.42.12.81.29,1.17.5.36.21.69.47.98.77.3.3.54.63.75,1l-1.66.67c-.14-.2-.29-.39-.48-.57-.18-.18-.38-.33-.6-.47-.22-.14-.45-.24-.7-.32-.24-.08-.5-.11-.76-.11-.42,0-.82.09-1.19.26-.37.17-.69.4-.96.69-.27.29-.49.62-.65,1.01-.16.39-.24.79-.24,1.2s.08.82.24,1.21c.16.38.38.71.65,1,.27.29.59.52.96.69.37.17.76.26,1.19.26.26,0,.52-.04.76-.11.25-.08.48-.18.7-.32.22-.14.42-.29.6-.48s.34-.37.48-.58l1.66.67Z"/>
        <path class="cls-9" d="M288.66,330.73l.96-1.42c.46.32.94.6,1.44.83.49.23,1.01.35,1.55.35.29,0,.54-.04.76-.11.22-.07.4-.17.56-.28.15-.11.27-.24.34-.39.08-.15.11-.29.11-.44,0-.18-.06-.34-.17-.47-.11-.13-.27-.24-.46-.32-.19-.08-.42-.16-.67-.21-.26-.06-.53-.11-.8-.17-.19-.03-.4-.07-.65-.12-.25-.05-.5-.11-.76-.19-.26-.08-.52-.19-.77-.32-.25-.13-.48-.3-.69-.49-.2-.2-.37-.44-.49-.71-.12-.27-.18-.6-.18-.97,0-.54.11-.99.33-1.35.22-.36.5-.64.84-.85.34-.21.72-.35,1.14-.44.42-.08.82-.13,1.21-.13s.74.03,1.04.08c.31.05.59.12.85.22.26.1.52.22.77.37.25.15.52.32.81.53l-.99,1.4c-.44-.3-.86-.54-1.27-.7-.4-.16-.83-.24-1.28-.24-.15,0-.33.02-.52.06s-.38.1-.55.18c-.17.09-.32.19-.43.32-.12.13-.17.29-.17.48s.07.34.2.47c.14.13.31.23.52.32.21.08.44.16.7.22.25.06.5.12.73.18.18.04.39.08.63.13.24.04.49.1.75.18.26.08.51.18.77.3.25.13.48.29.68.49.2.2.36.44.48.74.12.29.18.65.18,1.06,0,.48-.08.9-.25,1.26-.17.36-.41.65-.72.88-.31.23-.68.41-1.12.53-.43.12-.91.18-1.43.18-.48,0-.91-.04-1.27-.11-.37-.07-.7-.17-1.01-.29-.3-.12-.59-.27-.86-.44-.27-.17-.55-.36-.84-.56"/>
        <polygon class="cls-9" points="132.04 330.2 132.04 322.67 130.27 322.67 130.27 326.69 125.69 326.69 125.69 322.67 123.91 322.67 123.91 331.96 125.69 331.96 125.69 328.26 130.27 328.26 130.27 331.96 132.03 331.96 132.04 331.96 133.78 331.96 133.78 330.2 132.04 330.2"/>
      </g>
      <text class="cls-3" transform="translate(112.26 489.75)"><tspan class="cls-37" x="0" y="0">T</tspan><tspan class="cls-27" x="4.66" y="0">w</tspan><tspan class="cls-14" x="11.87" y="0">o </tspan></text>
      <text class="cls-7" transform="translate(136.75 489.75)"><tspan x="0" y="0">A</tspan><tspan class="cls-19" x="6.12" y="0">l</tspan><tspan class="cls-28" x="8.5" y="0">t</tspan><tspan x="11.63" y="0">e</tspan><tspan class="cls-38" x="16.64" y="0">r</tspan><tspan x="19.84" y="0">nati</tspan><tspan class="cls-29" x="35.86" y="0">v</tspan><tspan x="40.52" y="0">es</tspan></text>
      <g class="cls-18">
        <polygon class="cls-9" points="140.37 246.35 140.37 251.19 150.83 251.19 150.83 254.56 140.37 254.56 140.37 259.11 150.83 259.11 150.83 262.44 136.66 262.44 136.66 243.07 150.83 243.07 150.83 246.35 140.37 246.35"/>
        <polygon class="cls-9" points="208.28 258.78 208.28 243.07 204.57 243.07 204.57 251.46 195.02 251.46 195.02 243.07 191.31 243.07 191.31 262.44 195.02 262.44 195.02 254.74 204.57 254.74 204.57 262.44 208.24 262.44 208.28 262.44 211.91 262.44 211.91 258.78 208.28 258.78"/>
        <path class="cls-9" d="M132.17,205.08c-.42.78-.94,1.48-1.56,2.11-.62.63-1.3,1.16-2.05,1.61-.75.45-1.56.8-2.44,1.05-.87.25-1.78.37-2.71.37-1.38,0-2.67-.26-3.89-.79-1.22-.53-2.28-1.25-3.19-2.16-.91-.91-1.63-1.97-2.16-3.19-.53-1.22-.79-2.51-.79-3.89s.26-2.67.79-3.89c.53-1.22,1.25-2.28,2.16-3.19.91-.91,1.97-1.63,3.19-2.16,1.22-.53,2.51-.79,3.89-.79.93,0,1.84.12,2.71.37.87.25,1.68.6,2.44,1.05.75.45,1.43.99,2.05,1.61.62.63,1.14,1.32,1.56,2.08l-3.47,1.4c-.28-.42-.61-.82-.99-1.19-.38-.37-.8-.7-1.26-.98-.46-.28-.94-.5-1.46-.66-.51-.16-1.04-.24-1.59-.24-.88,0-1.71.18-2.47.54-.77.36-1.43.84-2,1.44-.57.6-1.01,1.3-1.35,2.11-.33.8-.5,1.64-.5,2.5s.17,1.72.5,2.52c.34.79.79,1.49,1.35,2.09.57.6,1.23,1.08,2,1.44.77.36,1.59.54,2.47.54.55,0,1.08-.08,1.59-.24.51-.16,1-.38,1.46-.66.46-.28.88-.61,1.26-.99.38-.38.71-.78.99-1.21l3.47,1.4Z"/>
        <path class="cls-9" d="M159.83,209.85l9.9-19.35h.37l9.9,19.35h-4.02l-1.51-3.04h-9.13l-1.48,3.04h-4.02ZM167.13,203.57h5.53l-2.75-5.85-2.78,5.85Z"/>
        <polygon class="cls-9" points="200.09 209.85 187.36 198.33 187.36 209.85 183.65 209.85 183.65 190.5 184.05 190.5 196.78 202.2 196.78 190.5 200.49 190.5 200.49 209.85 200.09 209.85"/>
        <path class="cls-9" d="M224.92,199.26c-.02.37-.03.71-.03,1.03-.02.28-.03.56-.03.83s0,.48-.03.62c-.11,1.22-.44,2.35-.99,3.39-.56,1.04-1.27,1.94-2.14,2.69-.87.75-1.88,1.34-3.02,1.76-1.14.42-2.33.64-3.59.64-1.38,0-2.67-.27-3.89-.79-1.22-.53-2.28-1.25-3.2-2.16-.91-.91-1.64-1.97-2.17-3.19-.53-1.22-.8-2.51-.8-3.89s.27-2.68.8-3.9c.53-1.23,1.26-2.29,2.17-3.2.91-.91,1.98-1.63,3.2-2.16,1.22-.53,2.51-.79,3.89-.79,1.75,0,3.35.41,4.8,1.22,1.46.81,2.63,1.9,3.53,3.26l-3.18,1.93c-.57-.83-1.3-1.53-2.21-2.09s-1.89-.85-2.95-.85c-.88,0-1.71.18-2.48.54-.77.36-1.44.84-2.01,1.44-.57.6-1.03,1.3-1.36,2.1-.34.8-.5,1.64-.5,2.5s.17,1.72.5,2.52c.34.79.79,1.49,1.36,2.09.57.6,1.24,1.08,2.01,1.44.77.36,1.59.54,2.48.54.67,0,1.32-.1,1.93-.3.62-.2,1.18-.49,1.7-.86.51-.37.96-.81,1.34-1.32.38-.51.66-1.08.83-1.7h-7.15v-3.33h11.17Z"/>
        <polygon class="cls-9" points="233.1 193.75 233.1 198.6 243.56 198.6 243.56 201.96 233.1 201.96 233.1 206.51 243.56 206.51 243.56 209.85 229.4 209.85 229.4 190.47 243.56 190.47 243.56 193.75 233.1 193.75"/>
        <polygon class="cls-9" points="219.69 246.35 219.69 251.19 230.15 251.19 230.15 254.56 219.69 254.56 219.69 259.11 230.15 259.11 230.15 262.44 215.98 262.44 215.98 243.07 230.15 243.07 230.15 246.35 219.69 246.35"/>
        <rect class="cls-9" x="114.61" y="216.66" width="3.71" height="19.35"/>
        <polygon class="cls-9" points="140.89 236.01 128.16 224.49 128.16 236.01 124.45 236.01 124.45 216.66 124.85 216.66 137.58 228.36 137.58 216.66 141.29 216.66 141.29 236.01 140.89 236.01"/>
        <path class="cls-9" d="M113.37,262.44l9.9-19.35h.37l9.9,19.35h-4.02l-1.51-3.04h-9.13l-1.48,3.04h-4.02ZM120.68,256.17h5.53l-2.75-5.85-2.78,5.85Z"/>
        <path class="cls-9" d="M155.12,259.9l2.01-2.96c.97.67,1.97,1.25,3,1.73,1.03.48,2.11.73,3.24.73.6,0,1.13-.08,1.59-.23s.85-.34,1.16-.58c.32-.24.56-.51.72-.82.16-.31.24-.61.24-.91,0-.39-.12-.72-.36-.99-.24-.27-.56-.5-.95-.68-.4-.17-.87-.33-1.4-.45-.54-.12-1.1-.24-1.68-.35-.39-.07-.84-.15-1.35-.25-.51-.1-1.04-.23-1.59-.4-.55-.17-1.09-.39-1.61-.66-.53-.27-1.01-.62-1.43-1.03-.42-.42-.76-.91-1.02-1.48-.26-.57-.38-1.25-.38-2.02,0-1.13.23-2.07.69-2.82.46-.75,1.05-1.34,1.76-1.77.71-.43,1.51-.74,2.38-.91.87-.18,1.72-.26,2.53-.26s1.54.05,2.17.16c.64.11,1.23.26,1.77.46.55.2,1.08.46,1.6.77.52.31,1.08.68,1.68,1.1l-2.07,2.91c-.92-.64-1.8-1.12-2.65-1.46-.85-.33-1.74-.5-2.68-.5-.32,0-.68.04-1.08.12-.41.08-.79.21-1.15.38-.36.18-.66.4-.9.67-.24.27-.36.61-.36.99s.14.71.42.98c.28.26.64.49,1.08.66.44.18.93.33,1.46.45.53.12,1.04.25,1.54.37.37.09.81.18,1.31.26.5.09,1.02.21,1.56.37.54.16,1.07.37,1.6.64.53.26,1,.6,1.42,1.02.41.42.75.93,1.01,1.54.26.61.38,1.35.38,2.21,0,1.01-.18,1.88-.53,2.62-.35.74-.86,1.36-1.51,1.84-.65.49-1.43.85-2.33,1.1-.9.25-1.9.37-2.99.37-1.01,0-1.89-.08-2.66-.23-.77-.15-1.47-.35-2.1-.61-.64-.26-1.24-.56-1.8-.91-.56-.35-1.15-.74-1.75-1.17"/>
        <polygon class="cls-9" points="187.47 246.35 181.94 246.35 181.94 262.44 178.23 262.44 178.23 246.35 172.67 246.35 172.67 243.07 187.47 243.07 187.47 246.35"/>
        <polygon class="cls-9" points="248.75 246.35 243.21 246.35 243.21 262.44 239.51 262.44 239.51 246.35 233.95 246.35 233.95 243.07 248.75 243.07 248.75 246.35"/>
        <rect class="cls-9" x="252.54" y="243.09" width="3.71" height="19.35"/>
        <path class="cls-9" d="M278.86,257.68c-.42.78-.94,1.48-1.56,2.11-.62.63-1.3,1.16-2.05,1.61-.75.45-1.56.8-2.44,1.05-.87.25-1.78.37-2.71.37-1.38,0-2.68-.26-3.89-.79-1.22-.53-2.28-1.25-3.19-2.16s-1.63-1.97-2.16-3.19c-.53-1.22-.79-2.51-.79-3.89s.26-2.67.79-3.89c.53-1.22,1.25-2.28,2.16-3.19.91-.91,1.97-1.63,3.19-2.16,1.22-.53,2.51-.79,3.89-.79.93,0,1.84.12,2.71.37.87.25,1.68.6,2.44,1.05.75.45,1.43.99,2.05,1.61.62.63,1.14,1.32,1.56,2.08l-3.47,1.4c-.28-.42-.61-.82-.99-1.19-.38-.37-.8-.7-1.26-.98-.46-.28-.94-.5-1.46-.66-.51-.16-1.04-.24-1.59-.24-.88,0-1.71.18-2.48.54-.77.36-1.43.84-2,1.44-.57.6-1.02,1.3-1.35,2.11-.33.8-.5,1.64-.5,2.5s.17,1.72.5,2.52c.34.79.79,1.49,1.35,2.09.57.6,1.23,1.08,2,1.44.77.36,1.59.54,2.48.54.55,0,1.08-.08,1.59-.24.51-.16,1-.38,1.46-.66.46-.28.88-.61,1.26-.99.38-.38.71-.78.99-1.21l3.47,1.4Z"/>
        <path class="cls-9" d="M281.61,259.9l2.01-2.96c.97.67,1.97,1.25,3,1.73,1.03.48,2.11.73,3.24.73.6,0,1.13-.08,1.59-.23.46-.15.85-.34,1.16-.58.32-.24.56-.51.71-.82.16-.31.24-.61.24-.91,0-.39-.12-.72-.36-.99-.24-.27-.56-.5-.95-.68-.4-.17-.86-.33-1.4-.45-.54-.12-1.1-.24-1.68-.35-.39-.07-.84-.15-1.35-.25-.51-.1-1.04-.23-1.59-.4-.55-.17-1.08-.39-1.61-.66-.53-.27-1.01-.62-1.43-1.03-.42-.42-.76-.91-1.02-1.48-.26-.57-.38-1.25-.38-2.02,0-1.13.23-2.07.69-2.82.46-.75,1.05-1.34,1.76-1.77.71-.43,1.51-.74,2.38-.91.87-.18,1.72-.26,2.53-.26s1.54.05,2.17.16c.64.11,1.23.26,1.77.46.55.2,1.08.46,1.6.77.52.31,1.08.68,1.68,1.1l-2.07,2.91c-.92-.64-1.8-1.12-2.65-1.46-.85-.33-1.74-.5-2.67-.5-.32,0-.68.04-1.09.12-.41.08-.79.21-1.15.38-.36.18-.66.4-.9.67-.24.27-.36.61-.36.99s.14.71.42.98c.28.26.64.49,1.08.66.44.18.93.33,1.46.45.53.12,1.04.25,1.54.37.37.09.81.18,1.31.26s1.02.21,1.56.37,1.07.37,1.6.64c.53.26,1,.6,1.42,1.02.41.42.75.93,1.01,1.54.26.61.38,1.35.38,2.21,0,1.01-.18,1.88-.53,2.62-.35.74-.86,1.36-1.51,1.84-.65.49-1.43.85-2.33,1.1-.9.25-1.9.37-2.99.37-1.01,0-1.89-.08-2.66-.23-.77-.15-1.47-.35-2.11-.61-.64-.26-1.24-.56-1.8-.91-.57-.35-1.15-.74-1.75-1.17"/>
        <polygon class="cls-9" points="152.6 206.18 152.6 190.47 148.89 190.47 148.89 198.86 139.33 198.86 139.33 190.47 135.63 190.47 135.63 209.85 139.33 209.85 139.33 202.14 148.89 202.14 148.89 209.85 152.56 209.85 152.6 209.85 156.22 209.85 156.22 206.18 152.6 206.18"/>
      </g>
      <text class="cls-7" transform="translate(519.38 269.52)"><tspan class="cls-48" x="0" y="0">T</tspan><tspan x="4.96" y="0">h</tspan><tspan class="cls-48" x="10.51" y="0">e</tspan><tspan class="cls-35" x="15.51" y="0"> </tspan><tspan class="cls-48" x="17.22" y="0">slog</tspan><tspan class="cls-50" x="34.58" y="0">a</tspan><tspan class="cls-48" x="39.38" y="0">n</tspan><tspan class="cls-35" x="44.92" y="0"> </tspan><tspan class="cls-48" x="46.63" y="0">of</tspan><tspan class="cls-36" x="55.02" y="0"> </tspan><tspan class="cls-49" x="56.73" y="0">t</tspan><tspan x="60.03" y="0">h</tspan><tspan class="cls-48" x="65.58" y="0">e</tspan><tspan class="cls-35" x="70.58" y="0"> </tspan><tspan class="cls-48" x="72.29" y="0">b</tspan><tspan class="cls-46" x="77.97" y="0">r</tspan><tspan class="cls-50" x="81.14" y="0">a</tspan><tspan x="85.94" y="0">n</tspan><tspan class="cls-48" x="91.49" y="0">d</tspan><tspan class="cls-35" x="97.12" y="0"> </tspan><tspan class="cls-48" x="98.83" y="0">i</tspan><tspan class="cls-50" x="101.16" y="0">s</tspan><tspan class="cls-35" x="105.1" y="0"> </tspan><tspan class="cls-51" x="106.81" y="0">a</tspan><tspan class="cls-48" x="111.61" y="0">bout</tspan><tspan class="cls-35" x="131.57" y="0"> </tspan><tspan class="cls-44" x="133.28" y="0">c</tspan><tspan class="cls-47" x="137.67" y="0">h</tspan><tspan class="cls-51" x="143.21" y="0">a</tspan><tspan x="148.01" y="0">n</tspan><tspan class="cls-48" x="153.56" y="0">gi</tspan><tspan class="cls-20" x="161.47" y="0">ng </tspan></text>
      <text class="cls-7" transform="translate(519.38 281.52)"><tspan class="cls-50" x="0" y="0">a</tspan><tspan class="cls-29" x="4.8" y="0">t</tspan><tspan class="cls-48" x="7.96" y="0">titudes</tspan><tspan class="cls-52" x="36.97" y="0"> </tspan><tspan class="cls-26" x="39.31" y="0">t</tspan><tspan class="cls-30" x="42.42" y="0">ow</tspan><tspan class="cls-51" x="54.93" y="0">a</tspan><tspan class="cls-32" x="59.73" y="0">r</tspan><tspan class="cls-51" x="62.86" y="0">d</tspan><tspan class="cls-53" x="68.48" y="0"> </tspan><tspan class="cls-48" x="70.83" y="0">t</tspan><tspan x="74.13" y="0">h</tspan><tspan class="cls-48" x="79.68" y="0">e</tspan><tspan class="cls-52" x="84.68" y="0"> </tspan><tspan class="cls-48" x="87.02" y="0">scie</tspan><tspan x="102.77" y="0">n</tspan><tspan class="cls-46" x="108.32" y="0">c</tspan><tspan class="cls-48" x="112.7" y="0">e</tspan><tspan class="cls-52" x="117.7" y="0"> </tspan><tspan class="cls-48" x="120.04" y="0">of</tspan><tspan class="cls-52" x="128.43" y="0"> </tspan><tspan x="130.77" y="0">a</tspan><tspan class="cls-48" x="135.59" y="0">est</tspan><tspan x="147.84" y="0">h</tspan><tspan class="cls-48" x="153.39" y="0">etic</tspan><tspan x="168.49" y="0">s </tspan></text>
      <text class="cls-7" transform="translate(519.38 293.52)"><tspan class="cls-48" x="0" y="0">in</tspan><tspan class="cls-11" x="7.87" y="0"> </tspan><tspan class="cls-48" x="13.33" y="0">t</tspan><tspan x="16.63" y="0">h</tspan><tspan class="cls-48" x="22.18" y="0">e</tspan><tspan class="cls-11" x="27.18" y="0"> </tspan><tspan class="cls-43" x="32.64" y="0">c</tspan><tspan class="cls-47" x="37.02" y="0">om</tspan><tspan x="50.83" y="0">m</tspan><tspan class="cls-48" x="59.17" y="0">on</tspan><tspan class="cls-10" x="70.19" y="0"> </tspan><tspan class="cls-50" x="75.64" y="0">a</tspan><tspan x="80.44" y="0">n</tspan><tspan class="cls-48" x="85.99" y="0">d</tspan><tspan class="cls-10" x="91.62" y="0"> </tspan><tspan class="cls-32" x="97.07" y="0">r</tspan><tspan class="cls-50" x="100.2" y="0">o</tspan><tspan class="cls-48" x="105.67" y="0">uti</tspan><tspan x="116.8" y="0">n</tspan><tspan class="cls-48" x="122.35" y="0">e</tspan><tspan class="cls-10" x="127.35" y="0"> </tspan><tspan class="cls-47" x="132.8" y="0">cu</tspan><tspan class="cls-14" x="142.77" y="0">l</tspan><tspan class="cls-48" x="145.13" y="0">tu</tspan><tspan class="cls-29" x="153.93" y="0">r</tspan><tspan class="cls-48" x="157.05" y="0">e</tspan><tspan class="cls-11" x="162.05" y="0"> </tspan><tspan class="cls-48" x="167.51" y="0">o</tspan><tspan x="172.99" y="0">f </tspan></text>
      <text class="cls-7" transform="translate(519.38 305.52)"><tspan class="cls-40" x="0" y="0">f</tspan><tspan class="cls-50" x="2.8" y="0">a</tspan><tspan class="cls-48" x="7.6" y="0">sh</tspan><tspan class="cls-51" x="17.09" y="0">i</tspan><tspan class="cls-47" x="19.41" y="0">on </tspan><tspan class="cls-51" x="32.54" y="0">a</tspan><tspan x="37.34" y="0">n</tspan><tspan class="cls-48" x="42.89" y="0">d</tspan><tspan class="cls-50" x="48.52" y="0"> </tspan><tspan class="cls-48" x="50.62" y="0">b</tspan><tspan class="cls-32" x="56.3" y="0">r</tspan><tspan class="cls-31" x="59.43" y="0">e</tspan><tspan class="cls-50" x="64.28" y="0">a</tspan><tspan class="cls-46" x="69.08" y="0">k</tspan><tspan class="cls-48" x="73.67" y="0">i</tspan><tspan x="76" y="0">n</tspan><tspan class="cls-48" x="81.55" y="0">g</tspan><tspan class="cls-50" x="87.13" y="0"> </tspan><tspan class="cls-48" x="89.23" y="0">s</tspan><tspan class="cls-25" x="93.18" y="0">t</tspan><tspan class="cls-48" x="96.28" y="0">e</tspan><tspan class="cls-29" x="101.28" y="0">r</tspan><tspan class="cls-48" x="104.4" y="0">eo</tspan><tspan class="cls-42" x="114.88" y="0">t</tspan><tspan class="cls-47" x="118.07" y="0">ypes</tspan><tspan x="137.4" y="0">.</tspan></text>
      <path d="M520.89,342.16h-1.07v-4.54c0-.25.05-.48.14-.69.09-.21.22-.4.38-.56.16-.16.35-.29.56-.38.21-.09.45-.14.69-.14h2.24c.25,0,.49.07.72.17.23.11.42.25.59.43.17.17.3.38.4.61.1.23.15.48.15.74v.15c0,.2.07.36.2.5.13.13.3.2.5.2h.15c.17,0,.31.05.41.15s.15.23.15.41c0,.16-.05.29-.15.39-.1.09-.24.14-.4.14h-.15c-.25,0-.48-.05-.7-.14-.22-.09-.42-.23-.58-.41-.17.17-.38.31-.63.41-.24.1-.49.15-.74.15-.26,0-.51-.05-.75-.16-.24-.11-.44-.25-.62-.42-.17-.17-.31-.38-.42-.62-.11-.24-.16-.49-.16-.75,0-.33.07-.63.21-.88h-.4c-.19,0-.35.07-.49.21s-.21.3-.21.49v4.54ZM523.72,336.93c-.25.01-.45.1-.61.27-.16.16-.23.37-.23.62s.08.44.25.61.37.25.61.25c.25,0,.47-.08.63-.25.17-.16.25-.37.25-.61s-.08-.44-.24-.61c-.16-.17-.36-.26-.59-.27h-.07ZM529.52,339.75h-.2c-.25,0-.48-.04-.68-.13-.2-.09-.39-.21-.57-.38-.34.34-.76.51-1.24.51h-.31c-.17,0-.31-.05-.41-.15-.1-.1-.15-.23-.15-.41,0-.16.05-.29.15-.39.11-.09.24-.14.4-.14h.31c.2,0,.36-.07.5-.22.13-.15.2-.32.2-.51v-4.61h1.09v4.61c0,.2.07.37.21.51.14.15.3.22.49.22h.2c.16,0,.29.05.4.14.1.1.15.23.15.39,0,.17-.05.31-.15.41-.1.1-.23.15-.41.15ZM533.93,339.75h-4.42c-.17,0-.31-.05-.41-.15-.1-.1-.15-.23-.15-.41,0-.16.05-.29.15-.39.11-.09.24-.14.4-.14h.96c-.16-.3-.24-.64-.24-1.01,0-.28.05-.55.16-.8.11-.25.26-.47.45-.65.19-.19.41-.33.66-.44.25-.11.52-.16.8-.16h1.19v1.07h-1.16c-.29,0-.54.09-.74.28-.2.19-.3.42-.3.7,0,.29.1.53.29.73.19.19.43.29.71.29h1.63v1.09ZM542.4,339.75h-.22c-.24,0-.47-.05-.7-.14-.23-.09-.42-.23-.59-.41-.18.18-.39.32-.63.41-.24.09-.48.14-.74.14-.27,0-.52-.05-.76-.15-.24-.1-.44-.24-.62-.41-.17-.17-.31-.38-.41-.62-.1-.24-.15-.49-.15-.76s.05-.53.15-.77c.1-.24.23-.44.41-.62s.38-.31.62-.41c.24-.1.49-.15.77-.15h.01l.87.03v-.47h1.07v2.54c0,.2.07.37.2.5.13.13.3.2.5.2h.22c.17,0,.3.05.4.14.1.09.15.23.15.39s-.05.31-.15.41c-.1.1-.23.15-.41.15ZM539.53,336.93c-.12,0-.23.02-.33.07-.11.05-.2.11-.28.2-.08.08-.14.18-.19.28-.05.11-.07.22-.07.33s.02.23.07.34c.05.11.11.2.19.28.08.08.17.14.28.19.11.05.22.07.33.07.24,0,.44-.09.61-.26.17-.17.25-.38.25-.63l.02-.88h-.88ZM543.12,339.75h-.72c-.17,0-.31-.05-.41-.15-.1-.09-.15-.23-.15-.4s.05-.3.15-.39c.1-.09.24-.14.41-.14h.72c.09,0,.18-.02.27-.06.08-.04.16-.09.22-.16.07-.07.12-.15.15-.23.04-.09.05-.18.05-.27v-1.73h1.09v1.77c0,.24-.05.47-.14.68-.09.21-.22.4-.39.57s-.35.29-.57.39c-.22.1-.45.15-.69.15ZM542.89,341.01h1v1.03h-1v-1.03ZM557.83,339.75h-.23c-.27,0-.52-.06-.75-.18-.23-.12-.43-.29-.6-.5-.21.22-.45.39-.73.5-.28.12-.57.17-.87.17h-3.38c-.31,0-.61-.06-.88-.17-.28-.12-.52-.28-.72-.48-.2-.2-.36-.44-.48-.72-.12-.28-.17-.57-.17-.88v-1.32h1.07v1.31c0,.16.03.31.09.46.06.15.15.27.25.38.11.11.23.19.38.25.15.06.3.09.47.09h3.38c.17-.01.32-.04.47-.1.15-.06.27-.14.38-.25.11-.11.19-.23.25-.37.06-.14.09-.29.09-.45v-1.32h1.07v1.84c0,.17.07.32.21.45.14.13.3.2.49.2h.23c.17,0,.31.05.4.14.1.09.15.22.15.39s-.05.31-.15.41c-.1.1-.23.15-.41.15ZM552.75,336.17h-1.01v-1.04h1.01v1.04ZM554.44,336.17h-1.01v-1.04h1.01v1.04ZM561.15,339.75c-.31,0-.58-.03-.81-.09-.24-.06-.46-.19-.66-.4-.35.33-.76.49-1.22.49h-.62c-.17,0-.31-.05-.41-.15-.1-.1-.15-.23-.15-.41s.05-.31.14-.39c.09-.09.23-.14.41-.14h.62c.19,0,.35-.07.49-.21.14-.14.21-.31.21-.52v-1.72h1.09v1.76c0,.19.07.35.2.49.13.14.3.21.5.21h.21c.17,0,.31.05.4.14.1.09.15.22.15.39s-.05.31-.15.41c-.1.1-.24.15-.4.15ZM559.09,341.01h1v1.03h-1v-1.03ZM569.49,339.75h-.28c-.24,0-.47-.05-.69-.14-.22-.09-.42-.22-.58-.39-.17.17-.37.3-.59.39-.22.09-.46.14-.7.14-.23,0-.46-.05-.69-.14-.23-.09-.43-.22-.59-.39-.36.35-.8.52-1.31.52-.28,0-.55-.07-.81-.2-.17-.07-.32-.18-.47-.33-.36.35-.8.52-1.3.52h-.33c-.17,0-.3-.05-.4-.15-.1-.1-.15-.24-.15-.4s.05-.3.15-.39c.1-.09.24-.14.4-.14h.33c.21,0,.39-.07.53-.21s.21-.32.21-.53v-1.55h1.11v1.55c0,.21.07.39.21.53.14.14.31.21.51.21.22,0,.4-.07.55-.21.15-.14.22-.32.22-.53v-1.55h1.08v1.55c0,.2.07.38.22.52.15.15.32.22.53.22s.39-.07.53-.22c.15-.15.22-.32.22-.52v-1.79h1.09v1.81c0,.2.07.37.22.51.15.14.32.21.51.21h.28c.18,0,.32.05.41.14.09.09.14.22.14.39s-.05.31-.15.41c-.1.1-.23.15-.41.15ZM570.21,339.75h-.72c-.17,0-.31-.05-.41-.15-.1-.09-.15-.23-.15-.4s.05-.3.15-.39c.1-.09.24-.14.41-.14h.72c.09,0,.18-.02.27-.06.08-.04.16-.09.22-.16.07-.07.12-.15.15-.23.04-.09.05-.18.05-.27v-1.73h1.09v1.77c0,.24-.05.47-.14.68-.09.21-.22.4-.39.57s-.35.29-.57.39c-.22.1-.45.15-.69.15ZM570.95,334.47h1v1.03h-1v-1.03ZM578.42,339.75h-.53c-.25,0-.48-.05-.7-.14-.22-.09-.41-.22-.57-.38-.16-.16-.29-.35-.38-.57-.09-.22-.14-.45-.14-.7v-4.65h1.07v4.66c0,.19.07.35.21.49.14.13.31.2.51.2h.53c.17,0,.3.05.4.14.1.09.15.23.15.39s-.05.31-.15.41c-.1.1-.23.15-.41.15ZM583.67,339.75h-5.26c-.17,0-.31-.05-.41-.15-.1-.1-.15-.23-.15-.41s.05-.3.15-.39c.1-.09.24-.14.4-.14h1c-.14-.27-.21-.56-.21-.86,0-.35.1-.69.31-1.04-.25-.12-.47-.31-.65-.59l-.1-.15.67-.63.14.14c.26.24.53.36.8.36l3.31-.03c.26,0,.51.05.75.15.24.1.44.24.62.42.18.18.32.39.42.62.1.24.15.49.15.75s-.05.52-.15.76c-.1.24-.24.44-.41.62-.17.18-.38.32-.62.42-.24.1-.49.15-.76.15ZM581.15,336.96c-.23,0-.43.08-.6.25-.17.17-.25.36-.25.59,0,.24.08.44.25.61.17.17.37.25.6.25.25,0,.46-.08.63-.25.17-.16.26-.37.26-.62,0-.23-.09-.42-.26-.59-.17-.17-.38-.25-.62-.25ZM583.13,337.8c0,.31-.07.6-.21.86h.75c.24,0,.44-.08.61-.25s.25-.37.25-.62-.08-.44-.25-.61c-.16-.17-.37-.25-.61-.26l-.76.02c.15.27.22.55.22.85h0ZM592.52,341.72c-.4,0-.78-.08-1.13-.23-.35-.15-.66-.36-.93-.63-.27-.27-.47-.57-.63-.93-.15-.35-.23-.73-.23-1.13v-1.72h1.09v1.72c0,.25.05.49.14.71.09.22.23.42.39.58.17.17.36.3.58.4.22.1.46.15.7.15s.48-.05.7-.15c.22-.1.41-.23.57-.4.16-.17.29-.37.39-.59.1-.22.15-.46.15-.7v-2.43h1.1v1.55c0,.21.07.39.21.53.14.14.31.21.52.21s.39-.07.53-.22.22-.32.22-.52v-1.55h1.08v1.56c.01.21.09.39.23.52.14.14.31.21.52.21h.49v-2.59h1.11v3.68h-1.6c-.23,0-.46-.05-.69-.14-.23-.09-.42-.23-.57-.39-.17.17-.38.3-.61.39-.23.09-.47.14-.71.14-.3,0-.57-.07-.83-.21-.08.31-.21.6-.39.87-.18.27-.39.49-.64.69-.25.19-.53.34-.83.45-.3.11-.62.16-.95.16ZM597.11,335.51h-1.01v-1.04h1.01v1.04ZM597.95,333.83h-1v-1.03h1v1.03ZM598.8,335.51h-1.01v-1.04h1.01v1.04ZM603.88,339.75c-.12,0-.25,0-.38-.03-.13-.02-.26-.06-.4-.11v.14c-.02.41-.1.75-.22,1.04-.13.29-.3.53-.52.74-.22.21-.47.38-.77.52-.29.14-.62.26-.99.37l-.22.07-.26-.94.17-.08c.23-.09.45-.18.66-.28.21-.1.4-.21.56-.34.33-.28.49-.65.49-1.11v-3.74h1.09v1.99c0,.13.03.24.08.33s.13.16.22.21c.09.05.19.09.3.11.11.02.22.03.33.03.17,0,.31.05.4.14.1.09.15.22.15.39,0,.24-.07.39-.2.46-.13.07-.3.1-.51.1ZM606.72,333.59l.64.7-1.35,1.17c.37.07.73.13,1.08.2.3.05.61.11.93.17.32.06.59.11.8.16.55.11.96.32,1.25.64.29.32.43.77.43,1.35.01.21.09.38.22.51.13.13.29.19.48.19h.17c.16,0,.29.05.4.14.1.1.15.23.15.39,0,.17-.05.31-.15.41-.1.1-.23.15-.41.15h-.17c-.49,0-.9-.16-1.24-.49-.16.17-.34.29-.55.37-.21.08-.43.12-.66.12h-4.71c-.17,0-.31-.05-.41-.15-.1-.1-.15-.23-.15-.41,0-.16.05-.29.15-.39.11-.09.24-.14.4-.14h4.71c.19,0,.35-.07.49-.2.14-.13.21-.3.21-.5,0-.17-.03-.31-.09-.42-.06-.11-.13-.2-.21-.27-.08-.07-.17-.12-.27-.16-.1-.04-.19-.07-.27-.08l-4.08-.77v-.92l2.19-1.75ZM604.39,334.83l-.46-.63,1.47-1.05.38.55-1.4,1.13ZM612.1,339.75h-.72c-.17,0-.31-.05-.41-.15-.1-.09-.15-.23-.15-.4s.05-.3.15-.39c.1-.09.24-.14.41-.14h.72c.09,0,.18-.02.27-.06.08-.04.16-.09.22-.16.07-.07.12-.15.15-.23.04-.09.05-.18.05-.27v-1.73h1.09v1.77c0,.24-.05.47-.14.68-.09.21-.22.4-.39.57s-.35.29-.57.39c-.22.1-.45.15-.69.15ZM612.84,334.47h1v1.03h-1v-1.03ZM617.11,342.6l-.28-.97.19-.07.16-.07c.19-.07.35-.14.49-.21.14-.07.28-.18.43-.32h.01c.34-.34.51-.75.51-1.24v-2.41h2.93v-1.08h1.09v1.68c0,.22.06.4.19.54.13.14.3.21.51.21h.41c.16,0,.29.05.4.14.1.1.15.23.15.39,0,.17-.05.31-.15.41-.1.1-.24.15-.4.15h-.41c-.37,0-.7-.09-1-.28s-.51-.45-.66-.8c-.04-.07-.07-.16-.09-.27h-1.89v1.33h-.01c-.03.4-.12.77-.26,1.11-.15.34-.34.63-.58.87-.22.21-.45.37-.69.47-.24.11-.47.2-.68.28-.03.01-.06.02-.08.03-.03,0-.05.01-.08.03l-.22.08ZM619.89,341.02h1.01v1.04h-1.01v-1.04ZM621.58,341.02h1.01v1.04h-1.01v-1.04ZM627.45,339.75c-.3,0-.6-.03-.91-.1-.31-.07-.56-.2-.75-.39-.35.33-.76.49-1.22.49h-.84c-.17,0-.31-.05-.41-.15-.1-.1-.15-.23-.15-.41s.05-.31.14-.39c.09-.09.23-.14.41-.14h.84c.19,0,.35-.07.49-.21.14-.14.21-.31.21-.52v-1.72h1.09v1.76c0,.19.07.35.2.49.13.14.3.21.5.21h.53c.17,0,.31.05.4.14.1.09.15.22.15.39,0,.23-.07.38-.2.45-.13.07-.3.1-.5.1ZM624.23,341.02h1.01v1.04h-1.01v-1.04ZM625.92,341.02h1.01v1.04h-1.01v-1.04ZM632.93,339.75h-5.33c-.17,0-.31-.05-.41-.15-.1-.1-.15-.23-.15-.41s.05-.3.15-.39c.1-.09.24-.14.4-.14h.96c-.16-.28-.24-.61-.24-1.01,0-.28.05-.55.16-.8.11-.25.26-.47.45-.65.19-.19.41-.33.66-.44.25-.11.52-.16.8-.16h1.96v2.14h-1.04l-.04-1.07h-.85c-.3,0-.55.09-.74.28-.2.19-.29.42-.29.7,0,.29.09.53.28.73.19.19.43.29.72.29h2.54c.16,0,.29.05.4.14.1.1.15.23.15.39,0,.17-.05.31-.15.41-.1.1-.23.15-.41.15ZM630.03,333.88h1v1.03h-1v-1.03ZM633.81,339.75h-.88c-.17,0-.31-.05-.41-.15-.1-.09-.15-.23-.15-.4s.05-.3.15-.39c.1-.09.24-.14.41-.14h.88c.09,0,.18-.02.27-.06.08-.04.16-.09.22-.16.07-.07.12-.15.15-.23.04-.09.05-.18.05-.27v-1.73h1.09v1.77c0,.24-.05.47-.14.68-.09.21-.22.4-.39.57s-.35.29-.57.39c-.22.1-.45.15-.69.15ZM633.95,335.51h-1.01v-1.04h1.01v1.04ZM635.64,335.51h-1.01v-1.04h1.01v1.04ZM641.44,339.94c-.26,0-.51-.05-.75-.15-.24-.1-.44-.23-.62-.41-.18-.17-.32-.38-.43-.61-.11-.23-.16-.48-.16-.74,0-.26.04-.52.14-.76.1-.25.25-.47.44-.65l.61-.62-.32-.32.76-.74,1.69,1.69c.19.19.33.4.43.64.09.24.15.48.15.74,0,.27-.05.52-.15.76-.1.24-.24.44-.42.62-.18.17-.39.31-.62.41-.24.1-.49.15-.76.15ZM640.79,337.37c-.16.17-.24.38-.23.62,0,.24.09.44.26.61.17.17.39.26.63.26s.44-.08.6-.24c.09-.09.15-.18.19-.29.04-.11.06-.22.06-.33s-.02-.23-.06-.33c-.04-.11-.1-.2-.19-.29l-.62-.62-.19.17s-.07.07-.11.11c-.04.04-.08.08-.13.13l-.11.11s-.07.07-.11.1ZM643.22,342.41l-.27-.94.19-.07c.23-.09.45-.19.66-.28.21-.09.4-.21.56-.35.32-.27.48-.64.48-1.11v-3.67h1.09v3.68c-.02.41-.1.77-.22,1.05-.13.29-.3.53-.51.74-.21.2-.47.37-.77.51-.3.14-.63.26-.99.37l-.21.07ZM649.41,339.75h-.53c-.25,0-.48-.05-.7-.14-.22-.09-.41-.22-.57-.38-.16-.16-.29-.35-.38-.57-.09-.22-.14-.45-.14-.7v-4.65h1.07v4.66c0,.19.07.35.21.49.14.13.31.2.51.2h.53c.17,0,.3.05.4.14.1.09.15.23.15.39s-.05.31-.15.41c-.1.1-.23.15-.41.15ZM650.13,339.75h-.72c-.17,0-.31-.05-.41-.15-.1-.09-.15-.23-.15-.4s.05-.3.15-.39c.1-.09.24-.14.41-.14h.72c.09,0,.18-.02.27-.06.08-.04.16-.09.22-.16.07-.07.12-.15.15-.23.04-.09.05-.18.05-.27v-1.73h1.09v1.77c0,.24-.05.47-.14.68-.09.21-.22.4-.39.57s-.35.29-.57.39c-.22.1-.45.15-.69.15ZM649.9,341.01h1v1.03h-1v-1.03ZM651.97,342.41l-.27-.94.19-.07c.23-.09.45-.19.66-.28.21-.09.4-.21.56-.35.32-.27.48-.64.48-1.11v-3.67h1.09v3.68c-.02.41-.1.77-.22,1.05-.13.29-.3.53-.51.74-.21.2-.47.37-.77.51-.3.14-.63.26-.99.37l-.21.07ZM658.17,339.75h-2.38v-1.09h2.38c.19,0,.35-.07.49-.2.14-.13.21-.29.21-.47,0-.13-.03-.25-.08-.35-.05-.11-.13-.19-.22-.25l-1.94-1.34.57-.88s.08.06.19.13c.1.07.22.15.35.24.13.09.28.19.44.29.16.11.31.21.45.31.14.1.27.18.37.26.11.07.18.12.21.15.23.16.41.37.54.62.13.25.19.53.19.83,0,.24-.05.47-.14.68-.09.21-.22.4-.39.56-.16.16-.35.29-.56.38-.21.09-.44.14-.68.14ZM666.76,339.99s.01-.07.02-.1c0-.02,0-.05,0-.08,0-.03,0-.05,0-.07h-.87c-.27,0-.52-.05-.76-.15-.24-.1-.44-.24-.62-.42-.17-.18-.31-.39-.41-.62-.1-.24-.15-.49-.15-.76s.05-.51.15-.75c.1-.24.24-.45.41-.63.17-.18.38-.33.62-.43.24-.11.49-.16.76-.16s.53.05.77.15c.24.1.44.24.62.43.17.18.31.39.41.63.1.24.15.49.15.77v.86h.52c.17,0,.31.05.4.14.1.09.15.23.15.39s-.05.31-.15.41c-.1.1-.23.15-.41.15h-.52c-.04.76-.33,1.36-.86,1.82-.11.09-.23.18-.37.25-.13.07-.27.14-.41.2-.14.06-.29.11-.43.15-.15.04-.28.08-.4.12-.04.01-.07.03-.11.03-.04,0-.08.02-.11.03l-.21.07-.29-.94.21-.08s.08-.03.12-.04c.04-.01.09-.03.13-.04.2-.07.41-.15.63-.23.21-.08.39-.18.54-.31.17-.13.28-.27.34-.43.06-.15.1-.28.13-.37ZM665.92,336.92c-.12,0-.23.02-.33.07-.11.05-.2.11-.28.19-.08.08-.14.17-.19.28-.05.11-.07.22-.07.34,0,.24.09.44.26.61.17.17.38.25.62.25h.88v-.86c0-.24-.09-.45-.26-.62s-.38-.26-.62-.26ZM672.53,339.75h-4.15c-.17,0-.31-.05-.41-.15-.1-.1-.15-.23-.15-.41s.05-.3.15-.39c.1-.09.24-.14.4-.14h4.15c.2,0,.36-.07.5-.21.13-.14.2-.3.2-.49,0-.17-.03-.31-.09-.42-.06-.11-.13-.21-.21-.28-.08-.07-.17-.13-.27-.16-.1-.04-.19-.06-.27-.08-.66-.13-1.32-.26-1.97-.38-.65-.12-1.31-.25-1.97-.37v-.93l2.19-1.73.64.7-1.35,1.17c.42.08.86.16,1.31.25.45.08.91.17,1.37.26.55.1.96.32,1.25.64.29.33.43.77.43,1.34,0,.25-.04.48-.13.7-.09.22-.21.41-.37.57-.16.16-.35.29-.56.38-.21.09-.44.14-.7.14ZM677.48,339.75h-.53c-.25,0-.48-.05-.7-.14-.22-.09-.41-.22-.57-.38-.16-.16-.29-.35-.38-.57-.09-.22-.14-.45-.14-.7v-4.65h1.07v4.66c0,.19.07.35.21.49.14.13.31.2.51.2h.53c.17,0,.3.05.4.14.1.09.15.23.15.39s-.05.31-.15.41c-.1.1-.23.15-.41.15ZM681.19,339.75c-.3,0-.6-.03-.91-.1-.31-.07-.56-.2-.75-.39-.35.33-.76.49-1.22.49h-.84c-.17,0-.31-.05-.41-.15-.1-.1-.15-.23-.15-.41s.05-.31.14-.39c.09-.09.23-.14.41-.14h.84c.19,0,.35-.07.49-.21.14-.14.21-.31.21-.52v-1.72h1.09v1.76c0,.19.07.35.2.49.13.14.3.21.5.21h.53c.17,0,.31.05.4.14.1.09.15.22.15.39,0,.23-.07.38-.2.45-.13.07-.3.1-.5.1ZM677.97,341.02h1.01v1.04h-1.01v-1.04ZM679.67,341.02h1.01v1.04h-1.01v-1.04ZM685.88,338.8c-.44.63-1.06.95-1.85.95h-2.69c-.17,0-.3-.05-.41-.15-.11-.1-.16-.23-.16-.4s.05-.29.16-.39c.11-.1.24-.15.41-.15h2.68c.19,0,.37-.05.54-.14.17-.09.32-.23.45-.39l.69-.87-1.3-.61c-.14-.07-.3-.11-.48-.11-.44,0-.83.23-1.19.7l-.11.15-.86-.46.12-.2c.23-.39.5-.7.83-.93.33-.23.73-.34,1.19-.34.35,0,.67.07.97.21.17.08.35.17.54.26.19.09.37.18.54.26.2.09.39.19.59.28.12.07.28.1.47.1h.76v1.05c-.12.01-.25.03-.39.04-.14.01-.27.02-.39.02-.11,0-.2-.01-.28-.03l-.83,1.17h0ZM683.28,341.02h1.01v1.04h-1.01v-1.04ZM684.13,342.7h1v1.03h-1v-1.03ZM684.97,341.02h1.01v1.04h-1.01v-1.04ZM696.69,339.75h-.23c-.32,0-.57-.07-.76-.2-.19-.13-.35-.31-.51-.53l-.07-.09c-.17.27-.38.47-.65.61-.27.14-.55.21-.87.21h-2.06v-1.09h2.06c.19,0,.35-.07.49-.2.14-.13.21-.29.21-.46,0-.07,0-.13-.02-.2-.01-.07-.04-.13-.08-.19l-1.27-1.87.87-.62,2.15,3.13.07.1c.08.13.14.22.18.26.04.04.09.06.15.06h.33c.18,0,.32.05.41.14.09.09.14.22.14.39s-.05.31-.15.41c-.1.1-.23.15-.41.15ZM697.41,339.75h-.72c-.17,0-.31-.05-.41-.15-.1-.09-.15-.23-.15-.4s.05-.3.15-.39c.1-.09.24-.14.41-.14h.72c.09,0,.18-.02.27-.06.08-.04.16-.09.22-.16.07-.07.12-.15.15-.23.04-.09.05-.18.05-.27v-1.73h1.09v1.77c0,.24-.05.47-.14.68-.09.21-.22.4-.39.57s-.35.29-.57.39c-.22.1-.45.15-.69.15ZM698.15,334.47h1v1.03h-1v-1.03ZM702.73,339.75c-.12,0-.25,0-.38-.03-.13-.02-.26-.06-.4-.11v.14c-.02.41-.1.75-.22,1.04-.13.29-.3.53-.52.74-.22.21-.47.38-.77.52-.29.14-.62.26-.99.37l-.22.07-.26-.94.17-.08c.23-.09.45-.18.66-.28.21-.1.4-.21.56-.34.33-.28.49-.65.49-1.11v-3.74h1.09v1.99c0,.13.03.24.08.33s.13.16.22.21c.09.05.19.09.3.11.11.02.22.03.33.03.17,0,.31.05.4.14.1.09.15.22.15.39,0,.24-.07.39-.2.46-.13.07-.3.1-.51.1ZM703.6,339.75h-.72c-.17,0-.31-.05-.41-.15-.1-.09-.15-.23-.15-.4s.05-.3.15-.39c.1-.09.24-.14.41-.14h.72c.09,0,.18-.02.27-.06.08-.04.16-.09.22-.16.07-.07.12-.15.15-.23.04-.09.05-.18.05-.27v-1.73h1.09v1.77c0,.24-.05.47-.14.68-.09.21-.22.4-.39.57s-.35.29-.57.39c-.22.1-.45.15-.69.15ZM703.37,341.01h1v1.03h-1v-1.03ZM708.99,342.41l-.27-.94.19-.07c.23-.09.45-.19.66-.28.21-.09.4-.21.56-.35.32-.27.48-.64.48-1.11v-3.67h1.09v3.68c-.02.41-.1.77-.22,1.05-.13.29-.3.53-.51.74-.21.2-.47.37-.77.51-.3.14-.63.26-.99.37l-.21.07ZM715.18,339.75h-.53c-.25,0-.48-.05-.7-.14-.22-.09-.41-.22-.57-.38-.16-.16-.29-.35-.38-.57-.09-.22-.14-.45-.14-.7v-4.65h1.07v4.66c0,.19.07.35.21.49.14.13.31.2.51.2h.53c.17,0,.3.05.4.14.1.09.15.23.15.39s-.05.31-.15.41c-.1.1-.23.15-.41.15ZM720.52,339.75h-5.33c-.17,0-.31-.05-.41-.15-.1-.1-.15-.23-.15-.41s.05-.3.15-.39c.1-.09.24-.14.4-.14h.96c-.16-.28-.24-.61-.24-1.01,0-.28.05-.55.16-.8.11-.25.26-.47.45-.65.19-.19.41-.33.66-.44.25-.11.52-.16.8-.16h1.96v2.14h-1.04l-.04-1.07h-.85c-.3,0-.55.09-.74.28-.2.19-.29.42-.29.7,0,.29.09.53.28.73.19.19.43.29.72.29h2.54c.16,0,.29.05.4.14.1.1.15.23.15.39,0,.17-.05.31-.15.41-.1.1-.23.15-.41.15ZM727.91,339.75h-1.55c-.49,0-.9-.17-1.24-.51-.33.34-.75.51-1.25.51-.23,0-.46-.05-.67-.14-.21-.09-.41-.22-.57-.39-.35.35-.77.52-1.27.52h-.84c-.17,0-.3-.05-.4-.15-.1-.1-.15-.23-.15-.41s.05-.31.15-.39c.09-.09.23-.14.4-.14h.84c.21,0,.38-.07.52-.2.13-.13.2-.3.2-.5v-1.53h1.09v1.66c0,.13.03.23.08.31.05.07.12.13.2.17.08.04.16.07.24.08.08.01.15.02.2.02.2,0,.36-.07.49-.2.13-.13.2-.3.22-.51v-1.52h1.06v1.6c.01.19.07.34.17.45.11.11.26.17.45.17h.55v-2.49h1.09v3.58ZM724.8,335.51h-1.01v-1.04h1.01v1.04ZM725.64,333.83h-1v-1.03h1v1.03ZM726.5,335.51h-1.01v-1.04h1.01v1.04Z"/>
      <path d="M521.43,355.46c-.93-1.19-1.4-2.37-1.4-3.55s.47-2.37,1.4-3.58h.67l-.09.14c-.76,1.12-1.13,2.24-1.13,3.37s.38,2.29,1.15,3.46c0,.01.01.04.04.09,0,.02.02.04.03.07h-.67ZM529.1,356.64h-4.04c-.25,0-.48-.05-.69-.14-.21-.09-.4-.22-.56-.39-.16-.16-.29-.35-.38-.57-.09-.22-.14-.45-.14-.69s.05-.48.14-.7c.09-.22.22-.41.38-.57.16-.16.35-.29.56-.38.21-.09.45-.14.69-.14h4.03c.2,0,.36-.07.5-.21.13-.14.2-.31.2-.51v-4.63h1.09v4.67c0,.19.07.35.21.48.14.13.3.2.49.2h.1c.17,0,.31.04.4.13.1.1.15.24.15.4s-.05.3-.15.4c-.1.1-.23.15-.41.15h-.1c-.23,0-.46-.05-.68-.14-.22-.09-.41-.21-.57-.37-.17.16-.36.28-.57.37-.21.09-.44.13-.67.13h-4.03c-.2,0-.36.07-.5.2-.13.13-.2.3-.2.5s.07.35.21.49c.14.14.3.21.49.21h4.04v1.09ZM538.71,354.15h-1.17c-.58,0-1.04-.26-1.36-.77-.22.22-.48.4-.79.54-.31.14-.62.22-.94.23h-2.78c-.17,0-.31-.05-.41-.15-.1-.1-.15-.23-.15-.4s.05-.3.15-.4c.1-.1.24-.15.4-.15h2.8c.37,0,.7-.17.98-.52l.68-.88-1.28-.61c-.15-.07-.32-.11-.51-.11-.12,0-.22.01-.31.04-.09.03-.18.07-.27.12s-.18.13-.27.22c-.09.09-.2.2-.32.33l-.11.12-.89-.44.12-.2c.23-.39.51-.7.84-.93.33-.23.73-.34,1.2-.34.33,0,.66.07.97.22l1.67.8c.17.07.33.1.48.1h.74v1.04l-.63.05h-.01c-.15,0-.28-.01-.41-.03l-.28.43c.01.17.09.31.21.42.13.11.29.18.49.19h1.16c.18,0,.32.05.41.14.09.09.14.22.14.39s-.05.31-.15.41c-.1.1-.23.15-.41.15ZM541.64,354.15c-.25,0-.5-.05-.73-.15-.23-.1-.44-.24-.62-.42-.17.18-.37.32-.59.42-.22.1-.45.15-.69.15h-.28c-.17,0-.31-.05-.41-.15-.1-.1-.15-.23-.15-.41s.05-.3.15-.39c.1-.09.24-.14.4-.14h.28c.17,0,.33-.06.47-.19.15-.13.22-.3.22-.51v-1.04h-.58v-1.07h2.52c.28,0,.53.05.77.15.24.1.44.24.62.41s.31.38.41.62c.1.24.15.49.15.77s-.05.52-.15.76c-.1.24-.24.44-.42.62-.18.17-.39.31-.62.41-.24.1-.49.15-.76.15ZM540.75,351.33v.88c0,.12.02.23.07.33.05.11.11.2.19.28.08.08.17.14.28.19.11.05.22.07.34.07.12,0,.24-.02.34-.07.11-.05.2-.11.28-.19.08-.08.14-.17.19-.28.05-.11.07-.22.07-.33,0-.25-.09-.46-.26-.63-.17-.17-.38-.26-.63-.26h-.88ZM545.12,355.46s.03-.04.04-.07c0-.01.01-.03.02-.05,0-.02.01-.03.01-.04.76-1.17,1.15-2.32,1.15-3.46s-.38-2.25-1.13-3.37l-.09-.14h.67c.93,1.21,1.4,2.4,1.4,3.58s-.47,2.35-1.4,3.55h-.67ZM554.15,355.65c-.39,0-.76-.07-1.1-.22-.34-.15-.64-.35-.9-.61-.26-.26-.46-.56-.61-.9-.15-.34-.22-.71-.22-1.1v-1.69h1.09v1.69c0,.24.05.47.14.68.09.21.22.4.38.56.16.16.35.28.56.37.21.09.44.14.68.14s.48-.05.69-.14c.21-.09.4-.21.56-.37.16-.16.29-.34.38-.56.09-.21.14-.44.14-.68v-2.37h1.06v1.94c0,.19.07.35.21.48.14.13.3.2.49.2h.12c.17,0,.3.05.4.14.1.09.15.23.15.39s-.05.31-.15.41c-.1.1-.23.15-.41.15h-.12c-.3,0-.6-.09-.91-.26-.11.27-.25.51-.43.73-.18.22-.38.4-.61.56-.23.15-.48.27-.75.35-.27.08-.55.12-.84.12ZM553.75,350.09h1v1.03h-1v-1.03ZM566.15,354.15h-.28c-.24,0-.47-.05-.69-.14-.22-.09-.42-.22-.58-.39-.17.17-.37.3-.59.39-.22.09-.46.14-.7.14-.23,0-.46-.05-.69-.14-.23-.09-.43-.22-.59-.39-.36.35-.8.52-1.31.52-.28,0-.55-.07-.81-.2-.17-.07-.32-.18-.47-.33-.36.35-.8.52-1.3.52h-.33c-.17,0-.3-.05-.4-.15-.1-.1-.15-.24-.15-.4s.05-.3.15-.39c.1-.09.24-.14.4-.14h.33c.21,0,.39-.07.53-.21.14-.14.21-.32.21-.53v-1.55h1.11v1.55c0,.21.07.39.21.53.14.14.31.21.51.21.22,0,.4-.07.55-.21.15-.14.22-.32.22-.53v-1.55h1.08v1.55c0,.2.07.38.22.52.15.15.32.22.53.22s.39-.07.53-.22c.15-.15.22-.32.22-.52v-1.79h1.09v1.81c0,.2.07.37.22.51.15.14.32.21.51.21h.28c.18,0,.32.05.41.14.09.09.14.22.14.39s-.05.31-.15.41c-.1.1-.23.15-.41.15ZM561.62,349.91h-1.01v-1.04h1.01v1.04ZM562.46,348.23h-1v-1.03h1v1.03ZM563.32,349.91h-1.01v-1.04h1.01v1.04ZM568.26,354.15h-2.09c-.17,0-.31-.05-.41-.15-.1-.1-.15-.23-.15-.41,0-.16.05-.29.15-.39.11-.09.24-.14.4-.14h2.09c.18,0,.34-.05.49-.14.14-.09.25-.21.32-.35h-.64c-.25,0-.48-.05-.69-.14-.21-.09-.4-.22-.56-.38-.16-.16-.29-.35-.38-.56-.09-.21-.14-.45-.14-.69s.05-.48.14-.69c.09-.21.22-.4.38-.57.16-.16.35-.29.56-.39.21-.09.44-.14.68-.14s.47.05.69.14c.22.09.41.22.57.39s.29.35.39.57c.09.22.14.45.14.69v1.4c0,.27-.05.52-.15.76-.1.24-.24.45-.41.62-.17.17-.38.31-.62.41-.24.1-.49.15-.77.15ZM568.42,350.1c-.2,0-.36.07-.5.2-.13.13-.2.3-.2.5s.07.36.2.5c.13.13.3.2.5.2h.7v-.7c0-.2-.07-.37-.2-.5s-.3-.2-.5-.2ZM567.94,347.13h1v1.03h-1v-1.03ZM578.23,356.31h-2.56c-.28,0-.55-.05-.8-.16-.25-.11-.47-.26-.66-.45-.19-.19-.34-.41-.45-.66-.11-.25-.16-.52-.16-.8v-2.33h1.09v2.33c0,.28.1.51.29.7.19.19.42.28.69.28h2.56c.2,0,.37-.07.5-.2.13-.13.2-.3.2-.5,0-.15-.04-.29-.13-.41-.09-.12-.19-.2-.32-.24l-2.43-.62v-1.03c0-.25.04-.5.13-.73.09-.23.21-.43.37-.61.16-.17.35-.31.57-.42.22-.11.46-.16.73-.16l1.75.03v1.05h-1.75c-.1,0-.2.02-.29.06-.09.04-.17.09-.23.15-.07.06-.12.13-.16.21-.04.08-.06.15-.06.22v.45c.28.05.54.11.79.16.25.06.54.13.86.21.39.1.69.31.93.61.23.31.35.66.35,1.06,0,.25-.05.49-.14.7-.09.21-.22.4-.38.57s-.35.29-.57.38c-.21.09-.45.14-.7.14ZM585.25,354.34c-.26,0-.51-.05-.75-.15-.24-.1-.44-.23-.62-.41-.18-.17-.32-.38-.43-.61-.11-.23-.16-.48-.16-.74,0-.26.04-.52.14-.76.1-.25.25-.47.44-.65l.61-.62-.32-.32.76-.74,1.69,1.69c.19.19.33.4.43.64.09.24.15.48.15.74,0,.27-.05.52-.15.76-.1.24-.24.44-.42.62-.18.17-.39.31-.62.41-.24.1-.49.15-.76.15ZM584.6,351.77c-.16.17-.24.38-.23.62,0,.24.09.44.26.61.17.17.39.26.63.26s.44-.08.6-.24c.09-.09.15-.18.19-.29.04-.11.06-.22.06-.33s-.02-.23-.06-.33c-.04-.11-.1-.2-.19-.29l-.62-.62-.19.17s-.07.07-.11.11c-.04.04-.08.08-.13.13-.04.04-.07.07-.11.11-.04.04-.07.07-.11.1ZM590.51,354.15c-.12,0-.25,0-.38-.03-.13-.02-.26-.06-.4-.11v.14c-.02.41-.1.75-.22,1.04-.13.29-.3.53-.52.74-.22.21-.47.38-.77.52-.29.14-.62.26-.99.37l-.22.07-.26-.94.17-.08c.23-.09.45-.18.66-.28.21-.1.4-.21.56-.34.33-.28.49-.65.49-1.11v-3.74h1.09v1.99c0,.13.03.24.08.33.05.09.13.16.22.21.09.05.19.09.3.11s.22.03.33.03c.17,0,.31.05.4.14.1.09.15.22.15.39,0,.24-.07.39-.2.46-.13.07-.3.1-.51.1ZM593.59,354.15c-.25,0-.5-.05-.73-.15-.23-.1-.44-.24-.62-.42-.17.18-.37.32-.59.42-.22.1-.45.15-.69.15h-.28c-.17,0-.31-.05-.41-.15-.1-.1-.15-.23-.15-.41s.05-.3.15-.39c.1-.09.24-.14.4-.14h.28c.17,0,.33-.06.47-.19.15-.13.22-.3.22-.51v-1.04h-.58v-1.07h2.52c.28,0,.53.05.77.15.24.1.44.24.62.41s.31.38.41.62c.1.24.15.49.15.77s-.05.52-.15.76c-.1.24-.24.44-.42.62-.18.17-.39.31-.62.41-.24.1-.49.15-.76.15ZM592.7,351.33v.88c0,.12.02.23.07.33.05.11.11.2.19.28.08.08.17.14.28.19.11.05.22.07.34.07.12,0,.24-.02.34-.07.11-.05.2-.11.28-.19.08-.08.14-.17.19-.28.05-.11.07-.22.07-.33,0-.25-.09-.46-.26-.63-.17-.17-.38-.26-.63-.26h-.88ZM595.37,356.81l-.27-.94.19-.07c.23-.09.45-.19.66-.28.21-.09.4-.21.56-.35.32-.27.48-.64.48-1.11v-3.67h1.09v3.68c-.02.41-.1.77-.22,1.05-.13.29-.3.53-.51.74-.21.2-.47.37-.77.51-.3.14-.63.26-.99.37l-.21.07ZM597.01,348.28h1v1.03h-1v-1.03ZM600.25,356.73l-.28-.94.2-.07s.09-.03.13-.04c.04-.01.08-.03.13-.04.21-.07.42-.14.63-.23.21-.09.39-.19.53-.3.15-.12.27-.27.37-.46.1-.19.15-.39.13-.58h-.86c-.27,0-.52-.05-.76-.15-.24-.1-.44-.24-.62-.42-.17-.18-.31-.39-.41-.62-.1-.24-.15-.49-.15-.76s.05-.51.15-.75c.1-.24.24-.45.41-.63.17-.18.38-.32.62-.43.24-.11.49-.16.76-.16s.52.05.76.16c.24.11.44.25.62.43.18.18.32.39.42.62.1.24.15.49.15.76v1.75c0,.41-.07.78-.2,1.12-.13.34-.35.65-.66.92-.11.09-.23.18-.37.25-.13.07-.27.13-.42.19-.15.06-.29.11-.43.15-.14.04-.27.08-.4.12-.04.01-.08.03-.12.04-.04.01-.07.02-.11.04l-.22.05ZM601.22,351.22c-.12,0-.23.02-.34.07-.11.05-.2.11-.28.2-.08.08-.14.18-.19.28-.05.11-.07.22-.07.33,0,.24.09.44.26.61.17.17.38.25.62.25h.88v-.86c0-.12-.02-.23-.07-.33-.05-.11-.11-.2-.19-.28-.08-.08-.17-.15-.28-.2-.11-.05-.22-.07-.34-.07ZM603.85,356.81l-.27-.94.19-.07c.23-.09.45-.19.66-.28.21-.09.4-.21.56-.35.32-.27.48-.64.48-1.11v-3.67h1.09v3.68c-.02.41-.1.77-.22,1.05-.13.29-.3.53-.51.74-.21.2-.47.37-.77.51-.3.14-.63.26-.99.37l-.21.07ZM611.23,356.73l-.28-.94.2-.07s.09-.03.13-.04c.04-.01.08-.03.13-.04.21-.07.42-.14.63-.23.21-.09.39-.19.53-.3.15-.12.27-.27.37-.46.1-.19.15-.39.13-.58h-.86c-.27,0-.52-.05-.76-.15-.24-.1-.44-.24-.62-.42-.17-.18-.31-.39-.41-.62-.1-.24-.15-.49-.15-.76s.05-.51.15-.75c.1-.24.24-.45.41-.63.17-.18.38-.32.62-.43.24-.11.49-.16.76-.16s.52.05.76.16c.24.11.44.25.62.43.18.18.32.39.42.62.1.24.15.49.15.76v1.75c0,.41-.07.78-.2,1.12-.13.34-.35.65-.66.92-.11.09-.23.18-.37.25-.13.07-.27.13-.42.19-.15.06-.29.11-.43.15-.14.04-.27.08-.4.12-.04.01-.08.03-.12.04-.04.01-.07.02-.11.04l-.22.05ZM612.2,351.22c-.12,0-.23.02-.34.07-.11.05-.2.11-.28.2-.08.08-.14.18-.19.28-.05.11-.07.22-.07.33,0,.24.09.44.26.61.17.17.38.25.62.25h.88v-.86c0-.12-.02-.23-.07-.33-.05-.11-.11-.2-.19-.28-.08-.08-.17-.15-.28-.2-.11-.05-.22-.07-.34-.07ZM623.51,351.98c-.07.01-.17.03-.31.04-.14.01-.28.02-.41.02h-.14c-.07,0-.13-.01-.18-.01s-.11,0-.16-.02l-.63.55c.04.15.12.27.24.36.12.09.27.14.44.14h1.54c.17,0,.3.05.4.15.1.1.15.23.15.4s-.05.3-.15.4c-.1.1-.23.15-.41.15h-1.54c-.35,0-.65-.08-.91-.25-.25-.17-.45-.41-.6-.72-.23.17-.46.33-.69.5-.23.17-.45.33-.68.5-.15.1-.28.21-.39.33-.1.1-.19.22-.28.36-.08.14-.13.28-.13.44,0,.17.03.32.1.47.07.15.15.27.27.38.11.11.24.19.39.26.15.06.3.09.47.09h2.93v1l-2.96.09h-.01c-.31,0-.6-.06-.87-.18-.28-.12-.52-.28-.72-.49-.2-.2-.37-.44-.49-.72-.12-.28-.18-.57-.18-.87,0-.35.07-.67.21-.98.14-.3.34-.56.61-.77l2.76-2.04-.92-.48c-.14-.07-.32-.11-.53-.11-.25,0-.48.06-.69.17-.2.11-.36.27-.47.49l-.11.21-.81-.48.08-.19c.18-.39.46-.71.83-.94.37-.23.77-.35,1.21-.35.36,0,.68.07.98.22h.01l1.36.74c.08.04.18.07.29.09.12.03.22.04.31.04h.76v1.01ZM620.25,354.87h.86v.88h-.86v-.88ZM625.44,354.15h-1.54c-.17,0-.31-.05-.41-.15-.1-.09-.15-.23-.15-.4s.05-.3.15-.39c.1-.09.24-.14.41-.14h1.54c.09,0,.18-.02.27-.06.08-.04.16-.09.22-.16.07-.07.12-.15.15-.23.04-.09.05-.18.05-.27v-1.73h1.09v1.77c0,.24-.05.47-.14.68-.09.21-.22.4-.39.57-.16.16-.35.29-.57.39-.22.1-.45.15-.69.15ZM623.89,355.42h1.01v1.04h-1.01v-1.04ZM625.58,355.42h1.01v1.04h-1.01v-1.04ZM629.68,354.15h-1.09v-6.44h1.09v6.44ZM629.73,356.81l-.27-.94.19-.07c.23-.09.45-.19.66-.28.21-.09.4-.21.56-.35.32-.27.48-.64.48-1.11v-3.67h1.09v3.68c-.02.41-.1.77-.22,1.05-.13.29-.3.53-.51.74-.21.2-.47.37-.77.51-.3.14-.63.26-.99.37l-.21.07ZM640.73,347.99l.63.7-1.35,1.17c.39.07.77.13,1.12.2.31.06.62.12.93.17.32.06.57.11.76.15.55.1.96.31,1.25.64.29.32.44.77.44,1.34.01.21.09.38.22.51.13.13.29.2.48.2h.17c.17,0,.3.05.4.14.1.09.15.23.15.39s-.05.31-.15.41c-.1.1-.23.15-.41.15h-.17c-.49,0-.9-.16-1.24-.49-.34.33-.75.49-1.21.49h-4.39c-.31,0-.61-.06-.88-.17-.28-.12-.52-.28-.72-.48-.2-.2-.36-.44-.48-.72-.12-.28-.17-.57-.17-.88v-1.32h1.09v1.32c0,.16.03.31.09.45.06.14.15.27.25.37.11.11.23.19.37.25.14.06.29.09.45.09h4.39c.19,0,.35-.07.49-.21s.21-.3.21-.49c0-.17-.03-.31-.09-.42-.06-.11-.13-.21-.22-.28-.09-.07-.18-.13-.28-.16-.1-.04-.19-.06-.27-.08h-.01c-.52-.1-1.03-.2-1.53-.29-.21-.04-.43-.09-.65-.13-.23-.04-.45-.09-.67-.13-.22-.04-.44-.08-.64-.12-.21-.04-.39-.07-.56-.1v-.93l2.19-1.73ZM638.38,349.23l-.46-.63,1.47-1.05.38.55-1.4,1.13ZM648.7,354.15c-.31,0-.58-.03-.81-.09-.24-.06-.46-.19-.66-.4-.35.33-.76.49-1.22.49h-.62c-.17,0-.31-.05-.41-.15-.1-.1-.15-.23-.15-.41s.05-.31.14-.39c.09-.09.23-.14.41-.14h.62c.19,0,.35-.07.49-.21.14-.14.21-.31.21-.52v-1.72h1.09v1.76c0,.19.07.35.2.49.13.14.3.21.5.21h.21c.17,0,.31.05.4.14.1.09.15.22.15.39s-.05.31-.15.41c-.1.1-.24.15-.4.15ZM646.74,348.87h1v1.03h-1v-1.03ZM653.96,354.15h-5.26c-.17,0-.31-.05-.41-.15-.1-.1-.15-.23-.15-.41s.05-.3.15-.39c.1-.09.24-.14.4-.14h1c-.14-.27-.21-.56-.21-.86,0-.35.1-.69.31-1.04-.25-.12-.47-.31-.65-.59l-.1-.15.67-.63.14.14c.26.24.53.36.8.36l3.31-.03c.26,0,.51.05.75.15.24.1.44.24.62.42.18.18.32.39.42.62.1.24.15.49.15.75s-.05.52-.15.76c-.1.24-.24.44-.41.62-.17.18-.38.32-.62.42-.24.1-.49.15-.76.15ZM651.44,351.36c-.23,0-.43.08-.6.25-.17.17-.25.36-.25.59,0,.24.08.44.25.61.17.17.37.25.6.25.25,0,.46-.08.63-.25.17-.16.26-.37.26-.62,0-.23-.09-.42-.26-.59-.17-.17-.38-.25-.62-.25ZM653.41,352.2c0,.31-.07.6-.21.86h.75c.24,0,.44-.08.61-.25s.25-.37.25-.62-.08-.44-.25-.61c-.16-.17-.37-.25-.61-.26l-.76.02c.15.27.22.55.22.85h0ZM659.32,354.15c-.12,0-.25,0-.38-.03-.13-.02-.26-.06-.4-.11v.14c-.02.41-.1.75-.22,1.04-.13.29-.3.53-.52.74-.22.21-.47.38-.77.52-.29.14-.62.26-.99.37l-.22.07-.26-.94.17-.08c.23-.09.45-.18.66-.28.21-.1.4-.21.56-.34.33-.28.49-.65.49-1.11v-3.74h1.09v1.99c0,.13.03.24.08.33.05.09.13.16.22.21.09.05.19.09.3.11s.22.03.33.03c.17,0,.31.05.4.14.1.09.15.22.15.39,0,.24-.07.39-.2.46-.13.07-.3.1-.51.1ZM661.57,354.15h-2.09c-.17,0-.31-.05-.41-.15-.1-.1-.15-.23-.15-.41,0-.16.05-.29.15-.39.11-.09.24-.14.4-.14h2.09c.18,0,.34-.05.49-.14.14-.09.25-.21.32-.35h-.64c-.25,0-.48-.05-.69-.14-.21-.09-.4-.22-.56-.38-.16-.16-.29-.35-.38-.56-.09-.21-.14-.45-.14-.69s.05-.48.14-.69c.09-.21.22-.4.38-.57.16-.16.35-.29.56-.39.21-.09.44-.14.68-.14s.47.05.69.14c.22.09.41.22.57.39s.29.35.39.57c.09.22.14.45.14.69v1.4c0,.27-.05.52-.15.76-.1.24-.24.45-.41.62-.17.17-.38.31-.62.41-.24.1-.49.15-.77.15ZM661.73,350.1c-.2,0-.36.07-.5.2-.13.13-.2.3-.2.5s.07.36.2.5c.13.13.3.2.5.2h.7v-.7c0-.2-.07-.37-.2-.5s-.3-.2-.5-.2ZM661.25,347.13h1v1.03h-1v-1.03ZM666.52,356.81l-.27-.94.19-.07c.23-.09.45-.19.66-.28.21-.09.4-.21.56-.35.32-.27.48-.64.48-1.11v-3.67h1.09v3.68c-.02.41-.1.77-.22,1.05-.13.29-.3.53-.51.74-.21.2-.47.37-.77.51-.3.14-.63.26-.99.37l-.21.07ZM672.72,354.15h-2.38v-1.09h2.38c.19,0,.35-.07.49-.2.14-.13.21-.29.21-.47,0-.13-.03-.25-.08-.35-.05-.11-.13-.19-.22-.25l-1.94-1.34.57-.88s.08.06.19.13c.1.07.22.15.35.24.13.09.28.19.44.29.16.11.31.21.45.31.14.1.27.18.37.26.11.07.18.12.21.15.23.16.41.37.54.62.13.25.19.53.19.83,0,.24-.05.47-.14.68-.09.21-.22.4-.39.56-.16.16-.35.29-.56.38-.21.09-.44.14-.68.14ZM686.27,356.64h-6.59c-.25,0-.48-.05-.7-.14-.22-.09-.41-.22-.56-.38-.16-.16-.28-.35-.37-.57-.09-.22-.14-.45-.14-.7s.05-.48.14-.69c.09-.21.22-.4.38-.57.16-.16.35-.29.56-.39.21-.09.45-.14.69-.14h2.63c.2,0,.37-.07.51-.2.14-.13.21-.3.21-.5v-1.53h1.09v1.66c0,.13.03.23.08.31.05.07.12.13.2.17.08.04.16.07.24.08.08.01.15.02.2.02.19,0,.35-.07.49-.2.13-.13.21-.3.22-.5v-1.53h1.05l.02,1.6c0,.2.05.35.16.46s.26.16.45.16h.55v-2.49h1.09v3.58h-1.55c-.51,0-.92-.17-1.24-.51-.33.34-.75.51-1.25.51s-.91-.17-1.25-.51c-.33.34-.75.51-1.25.51h-2.63c-.2,0-.36.07-.5.2-.13.13-.2.3-.2.5s.07.35.21.49c.14.14.3.21.49.21h6.59v1.09ZM692.39,354.15h-.53c-.25,0-.48-.05-.7-.14-.22-.09-.41-.22-.57-.38-.16-.16-.29-.35-.38-.57-.09-.22-.14-.45-.14-.7v-4.65h1.07v4.66c0,.19.07.35.21.49.14.13.31.2.51.2h.53c.17,0,.3.05.4.14.1.09.15.23.15.39s-.05.31-.15.41c-.1.1-.23.15-.41.15ZM695.71,354.15c-.31,0-.58-.03-.81-.09-.24-.06-.46-.19-.66-.4-.35.33-.76.49-1.22.49h-.62c-.17,0-.31-.05-.41-.15-.1-.1-.15-.23-.15-.41s.05-.31.14-.39c.09-.09.23-.14.41-.14h.62c.19,0,.35-.07.49-.21.14-.14.21-.31.21-.52v-1.72h1.09v1.76c0,.19.07.35.2.49.13.14.3.21.5.21h.21c.17,0,.31.05.4.14.1.09.15.22.15.39s-.05.31-.15.41c-.1.1-.24.15-.4.15ZM693.74,348.87h1v1.03h-1v-1.03ZM703.1,354.15h-1.55c-.49,0-.9-.17-1.24-.51-.33.34-.75.51-1.25.51-.23,0-.46-.05-.67-.14-.21-.09-.41-.22-.57-.39-.35.35-.77.52-1.27.52h-.84c-.17,0-.3-.05-.4-.15-.1-.1-.15-.23-.15-.41s.05-.31.15-.39c.09-.09.23-.14.4-.14h.84c.21,0,.38-.07.52-.2.13-.13.2-.3.2-.5v-1.53h1.09v1.66c0,.13.03.23.08.31.05.07.12.13.2.17.08.04.16.07.24.08.08.01.15.02.2.02.2,0,.36-.07.49-.2.13-.13.2-.3.22-.51v-1.52h1.06v1.6c.01.19.07.34.17.45.11.11.26.17.45.17h.55v-2.49h1.09v3.58ZM699.99,349.91h-1.01v-1.04h1.01v1.04ZM700.83,348.23h-1v-1.03h1v1.03ZM701.68,349.91h-1.01v-1.04h1.01v1.04ZM710.64,356.64h-2.28c-.25,0-.48-.05-.7-.14-.22-.09-.41-.22-.56-.38-.16-.16-.28-.35-.37-.57-.09-.22-.14-.45-.14-.7s.05-.48.14-.69c.09-.21.22-.4.38-.57.16-.16.35-.29.56-.39.21-.09.45-.14.69-.14h4.75c.19,0,.35-.08.49-.22.14-.14.21-.31.21-.51v-1.73h1.09v1.77c0,.25-.05.48-.14.69-.09.21-.22.4-.38.57-.16.16-.35.29-.56.39-.21.09-.45.14-.69.14h-4.76c-.2,0-.36.07-.5.2-.13.13-.2.3-.2.5s.07.35.21.49c.14.14.3.21.49.21h2.28v1.09ZM711.47,355.42h1.01v1.04h-1.01v-1.04ZM713.16,355.42h1.01v1.04h-1.01v-1.04ZM718.41,354.15h-.53c-.25,0-.48-.05-.7-.14-.22-.09-.41-.22-.57-.38-.16-.16-.29-.35-.38-.57-.09-.22-.14-.45-.14-.7v-4.65h1.07v4.66c0,.19.07.35.21.49.14.13.31.2.51.2h.53c.17,0,.3.05.4.14.1.09.15.23.15.39s-.05.31-.15.41c-.1.1-.23.15-.41.15ZM721.73,354.15c-.31,0-.58-.03-.81-.09-.24-.06-.46-.19-.66-.4-.35.33-.76.49-1.22.49h-.62c-.17,0-.31-.05-.41-.15-.1-.1-.15-.23-.15-.41s.05-.31.14-.39c.09-.09.23-.14.41-.14h.62c.19,0,.35-.07.49-.21.14-.14.21-.31.21-.52v-1.72h1.09v1.76c0,.19.07.35.2.49.13.14.3.21.5.21h.21c.17,0,.31.05.4.14.1.09.15.22.15.39s-.05.31-.15.41c-.1.1-.24.15-.4.15ZM719.67,355.41h1v1.03h-1v-1.03ZM723.28,354.15h-1.54c-.17,0-.31-.05-.41-.15-.1-.09-.15-.23-.15-.4s.05-.3.15-.39c.1-.09.24-.14.41-.14h1.54c.09,0,.18-.02.27-.06.08-.04.16-.09.22-.16.07-.07.12-.15.15-.23.04-.09.05-.18.05-.27v-1.73h1.09v1.77c0,.24-.05.47-.14.68-.09.21-.22.4-.39.57-.16.16-.35.29-.57.39-.22.1-.45.15-.69.15ZM721.73,355.42h1.01v1.04h-1.01v-1.04ZM723.42,355.42h1.01v1.04h-1.01v-1.04ZM725.28,356.81l-.27-.94.19-.07c.23-.09.45-.19.66-.28.21-.09.4-.21.56-.35.32-.27.48-.64.48-1.11v-3.67h1.09v3.68c-.02.41-.1.77-.22,1.05-.13.29-.3.53-.51.74-.21.2-.47.37-.77.51-.3.14-.63.26-.99.37l-.21.07ZM726.92,348.28h1v1.03h-1v-1.03Z"/>
      <path d="M567.83,368.68c-.21,0-.39-.07-.54-.2-.15-.13-.22-.31-.22-.52s.07-.37.22-.51c.15-.13.33-.2.54-.2s.39.07.54.2c.15.13.22.3.22.51s-.07.38-.22.52c-.15.13-.33.2-.54.2ZM578.89,368.55h-.23c-.27,0-.52-.06-.75-.18-.23-.12-.43-.29-.6-.5-.21.22-.45.39-.73.5-.28.12-.57.17-.87.17h-3.38c-.31,0-.61-.06-.88-.17-.28-.12-.52-.28-.72-.48-.2-.2-.36-.44-.48-.72-.12-.28-.17-.57-.17-.88v-1.32h1.07v1.31c0,.16.03.31.09.46.06.15.15.27.25.38.11.11.23.19.38.25.15.06.3.09.47.09h3.38c.17-.01.32-.04.47-.1.15-.06.27-.14.38-.25.11-.11.19-.23.25-.37.06-.14.09-.29.09-.45v-1.32h1.07v1.84c0,.17.07.32.21.45.14.13.3.2.49.2h.23c.17,0,.31.05.4.14.1.09.15.22.15.39s-.05.31-.15.41c-.1.1-.23.15-.41.15ZM573.81,364.97h-1.01v-1.04h1.01v1.04ZM575.5,364.97h-1.01v-1.04h1.01v1.04ZM586.29,368.55h-1.55c-.49,0-.9-.17-1.24-.51-.33.34-.75.51-1.25.51-.23,0-.46-.05-.67-.14-.21-.09-.41-.22-.57-.39-.35.35-.77.52-1.27.52h-.84c-.17,0-.3-.05-.4-.15-.1-.1-.15-.23-.15-.41s.05-.31.15-.39c.09-.09.23-.14.4-.14h.84c.21,0,.38-.07.52-.2.13-.13.2-.3.2-.5v-1.53h1.09v1.66c0,.13.03.23.08.31.05.07.12.13.2.17.08.04.16.07.24.08.08.01.15.02.2.02.2,0,.36-.07.49-.2.13-.13.2-.3.22-.51v-1.52h1.06v1.6c.01.19.07.34.17.45.11.11.26.17.45.17h.55v-2.49h1.09v3.58ZM588.58,368.55h-1.09v-6.44h1.09v6.44ZM594.89,368.55h-.53c-.25,0-.48-.05-.7-.14-.22-.09-.41-.22-.57-.38-.16-.16-.29-.35-.38-.57-.09-.22-.14-.45-.14-.7v-4.65h1.07v4.66c0,.19.07.35.21.49.14.13.31.2.51.2h.53c.17,0,.3.05.4.14.1.09.15.23.15.39s-.05.31-.15.41c-.1.1-.23.15-.41.15ZM600.15,368.55h-5.26c-.17,0-.31-.05-.41-.15-.1-.1-.15-.23-.15-.41s.05-.3.15-.39c.1-.09.24-.14.4-.14h1c-.14-.27-.21-.56-.21-.86,0-.35.1-.69.31-1.04-.25-.12-.47-.31-.65-.59l-.1-.15.67-.63.14.14c.26.24.53.36.8.36l3.31-.03c.26,0,.51.05.75.15.24.1.44.24.62.42.18.18.32.39.42.62.1.24.15.49.15.75s-.05.52-.15.76c-.1.24-.24.44-.41.62-.17.18-.38.32-.62.42-.24.1-.49.15-.76.15ZM597.63,365.76c-.23,0-.43.08-.6.25-.17.17-.25.36-.25.59,0,.24.08.44.25.61.17.17.37.25.6.25.25,0,.46-.08.63-.25.17-.16.26-.37.26-.62,0-.23-.09-.42-.26-.59-.17-.17-.38-.25-.62-.25ZM599.61,366.6c0,.31-.07.6-.21.86h.75c.24,0,.44-.08.61-.25s.25-.37.25-.62-.08-.44-.25-.61c-.16-.17-.37-.25-.61-.26l-.76.02c.15.27.22.55.22.85h0ZM610.57,368.55h-.22c-.24,0-.47-.05-.7-.14-.23-.09-.42-.23-.59-.41-.18.18-.39.32-.63.41-.24.09-.48.14-.74.14-.27,0-.52-.05-.76-.15-.24-.1-.44-.24-.62-.41s-.31-.38-.41-.62c-.1-.24-.15-.49-.15-.76s.05-.53.15-.77c.1-.24.23-.44.41-.62s.38-.31.62-.41c.24-.1.49-.15.77-.15h.01l.87.03v-.47h1.07v2.54c0,.2.07.37.2.5.13.13.3.2.5.2h.22c.17,0,.3.05.4.14.1.09.15.23.15.39s-.05.31-.15.41c-.1.1-.23.15-.41.15ZM607.7,365.73c-.12,0-.23.02-.33.07-.11.05-.2.11-.28.2-.08.08-.14.18-.19.28-.05.11-.07.22-.07.33s.02.23.07.34c.05.11.11.2.19.28.08.08.17.14.28.19.11.05.22.07.33.07.24,0,.44-.09.61-.26.17-.17.25-.38.25-.63l.02-.88h-.88ZM618.91,368.55h-.28c-.24,0-.47-.05-.69-.14-.22-.09-.42-.22-.58-.39-.17.17-.37.3-.59.39-.22.09-.46.14-.7.14-.23,0-.46-.05-.69-.14-.23-.09-.43-.22-.59-.39-.36.35-.8.52-1.31.52-.28,0-.55-.07-.81-.2-.17-.07-.32-.18-.47-.33-.36.35-.8.52-1.3.52h-.33c-.17,0-.3-.05-.4-.15-.1-.1-.15-.24-.15-.4s.05-.3.15-.39c.1-.09.24-.14.4-.14h.33c.21,0,.39-.07.53-.21.14-.14.21-.32.21-.53v-1.55h1.11v1.55c0,.21.07.39.21.53.14.14.31.21.51.21.22,0,.4-.07.55-.21.15-.14.22-.32.22-.53v-1.55h1.08v1.55c0,.2.07.38.22.52.15.15.32.22.53.22s.39-.07.53-.22c.15-.15.22-.32.22-.52v-1.79h1.09v1.81c0,.2.07.37.22.51.15.14.32.21.51.21h.28c.18,0,.32.05.41.14.09.09.14.22.14.39s-.05.31-.15.41c-.1.1-.23.15-.41.15ZM614.38,364.31h-1.01v-1.04h1.01v1.04ZM615.22,362.63h-1v-1.03h1v1.03ZM616.07,364.31h-1.01v-1.04h1.01v1.04ZM622.63,368.55c-.3,0-.6-.03-.91-.1-.31-.07-.56-.2-.75-.39-.35.33-.76.49-1.22.49h-.84c-.17,0-.31-.05-.41-.15-.1-.1-.15-.23-.15-.41s.05-.31.14-.39c.09-.09.23-.14.41-.14h.84c.19,0,.35-.07.49-.21.14-.14.21-.31.21-.52v-1.72h1.09v1.76c0,.19.07.35.2.49.13.14.3.21.5.21h.53c.17,0,.31.05.4.14.1.09.15.22.15.39,0,.23-.07.38-.2.45-.13.07-.3.1-.5.1ZM619.41,369.82h1.01v1.04h-1.01v-1.04ZM621.1,369.82h1.01v1.04h-1.01v-1.04ZM625.76,368.55h-.2c-.25,0-.48-.04-.68-.13-.2-.09-.39-.21-.57-.38-.34.34-.76.51-1.24.51h-.31c-.17,0-.31-.05-.41-.15-.1-.1-.15-.23-.15-.41,0-.16.05-.29.15-.39.11-.09.24-.14.4-.14h.31c.2,0,.36-.07.5-.22.13-.15.2-.32.2-.51v-4.61h1.09v4.61c0,.2.07.37.21.51.14.15.3.22.49.22h.2c.16,0,.29.05.4.14.1.1.15.23.15.39,0,.17-.05.31-.15.41-.1.1-.23.15-.41.15ZM629.9,368.55h-4.15c-.17,0-.31-.05-.41-.15-.1-.1-.15-.23-.15-.41s.05-.3.15-.39c.1-.09.24-.14.4-.14h4.15c.2,0,.36-.07.5-.21.13-.14.2-.3.2-.49,0-.17-.03-.31-.09-.42-.06-.11-.13-.21-.21-.28-.08-.07-.17-.13-.27-.16-.1-.04-.19-.06-.27-.08-.66-.13-1.32-.26-1.97-.38-.65-.12-1.31-.25-1.97-.37v-.93l2.19-1.73.64.7-1.35,1.17c.42.08.86.16,1.31.25.45.08.91.17,1.37.26.55.1.96.32,1.25.64.29.33.43.77.43,1.34,0,.25-.04.48-.13.7-.09.22-.21.41-.37.57-.16.16-.35.29-.56.38-.21.09-.44.14-.7.14ZM634.83,371.21l-.27-.94.19-.07c.23-.09.45-.19.66-.28.21-.09.4-.21.56-.35.32-.27.48-.64.48-1.11v-3.67h1.09v3.68c-.02.41-.1.77-.22,1.05-.13.29-.3.53-.51.74-.21.2-.47.37-.77.51-.3.14-.63.26-.99.37l-.21.07ZM641.02,368.55h-.53c-.25,0-.48-.05-.7-.14-.22-.09-.41-.22-.57-.38-.16-.16-.29-.35-.38-.57-.09-.22-.14-.45-.14-.7v-4.65h1.07v4.66c0,.19.07.35.21.49.14.13.31.2.51.2h.53c.17,0,.3.05.4.14.1.09.15.23.15.39s-.05.31-.15.41c-.1.1-.23.15-.41.15ZM645.21,368.55c-.15,0-.33,0-.53-.02-.2-.01-.4-.04-.61-.08-.2-.04-.39-.09-.57-.15-.18-.06-.32-.14-.42-.25-.35.33-.76.49-1.22.49h-.84c-.17,0-.31-.05-.41-.15-.1-.1-.15-.23-.15-.41s.05-.31.14-.39c.09-.09.23-.14.41-.14h.84c.19,0,.35-.07.49-.21.14-.14.21-.31.21-.52v-1.72h1.09v1.76c0,.19.07.35.2.49.13.14.3.21.5.21h.86c.17,0,.31.05.4.14.1.09.15.22.15.39s-.05.31-.15.41c-.1.1-.24.15-.4.15ZM642.75,364.31h-1.01v-1.04h1.01v1.04ZM644.44,364.31h-1.01v-1.04h1.01v1.04ZM649.76,367.6c-.44.63-1.06.95-1.85.95h-2.69c-.17,0-.3-.05-.41-.15-.11-.1-.16-.23-.16-.4s.05-.29.16-.39c.11-.1.24-.15.41-.15h2.68c.19,0,.37-.05.54-.14.17-.09.32-.23.45-.39l.69-.87-1.3-.61c-.14-.07-.3-.11-.48-.11-.44,0-.83.23-1.19.7l-.11.15-.86-.46.12-.2c.23-.39.5-.7.83-.93.33-.23.73-.34,1.19-.34.35,0,.67.07.97.21.17.08.35.17.54.26.19.09.37.18.54.26.2.09.39.19.59.28.12.07.28.1.47.1h.76v1.05c-.12.01-.25.03-.39.04-.14.01-.27.02-.39.02-.11,0-.2-.01-.28-.03l-.83,1.17h0ZM647.35,362.69h1v1.03h-1v-1.03ZM654.96,368.55h-.53c-.25,0-.48-.05-.7-.14-.22-.09-.41-.22-.57-.38-.16-.16-.29-.35-.38-.57-.09-.22-.14-.45-.14-.7v-4.65h1.07v4.66c0,.19.07.35.21.49.14.13.31.2.51.2h.53c.17,0,.3.05.4.14.1.09.15.23.15.39s-.05.31-.15.41c-.1.1-.23.15-.41.15ZM662.36,368.55h-1.55c-.49,0-.9-.17-1.24-.51-.33.34-.75.51-1.25.51-.23,0-.46-.05-.67-.14-.21-.09-.41-.22-.57-.39-.35.35-.77.52-1.27.52h-.84c-.17,0-.3-.05-.4-.15-.1-.1-.15-.23-.15-.41s.05-.31.15-.39c.09-.09.23-.14.4-.14h.84c.21,0,.38-.07.52-.2.13-.13.2-.3.2-.5v-1.53h1.09v1.66c0,.13.03.23.08.31.05.07.12.13.2.17.08.04.16.07.24.08.08.01.15.02.2.02.2,0,.36-.07.49-.2.13-.13.2-.3.22-.51v-1.52h1.06v1.6c.01.19.07.34.17.45.11.11.26.17.45.17h.55v-2.49h1.09v3.58ZM669.18,370.05c-.39,0-.76-.07-1.1-.22-.34-.15-.64-.35-.9-.61-.26-.26-.46-.56-.61-.9-.15-.34-.22-.71-.22-1.1v-1.69h1.09v1.69c0,.24.05.47.14.68.09.21.22.4.38.56.16.16.35.28.56.37.21.09.44.14.68.14s.48-.05.69-.14c.21-.09.4-.21.56-.37.16-.16.29-.34.38-.56.09-.21.14-.44.14-.68v-2.37h1.06v1.94c0,.19.07.35.21.48.14.13.3.2.49.2h.12c.17,0,.3.05.4.14.1.09.15.23.15.39s-.05.31-.15.41c-.1.1-.23.15-.41.15h-.12c-.3,0-.6-.09-.91-.26-.11.27-.25.51-.43.73-.18.22-.38.4-.61.56-.23.15-.48.27-.75.35-.27.08-.55.12-.84.12ZM668.78,364.49h1v1.03h-1v-1.03ZM677.02,368.55c-.15,0-.33,0-.53-.02-.2-.01-.4-.04-.61-.08-.2-.04-.39-.09-.57-.15-.18-.06-.32-.14-.42-.25-.35.33-.76.49-1.22.49h-.84c-.17,0-.31-.05-.41-.15-.1-.1-.15-.23-.15-.41s.05-.31.14-.39c.09-.09.23-.14.41-.14h.84c.19,0,.35-.07.49-.21.14-.14.21-.31.21-.52v-1.72h1.09v1.76c0,.19.07.35.2.49.13.14.3.21.5.21h.86c.17,0,.31.05.4.14.1.09.15.22.15.39s-.05.31-.15.41c-.1.1-.24.15-.4.15ZM674.56,364.31h-1.01v-1.04h1.01v1.04ZM676.25,364.31h-1.01v-1.04h1.01v1.04ZM685.37,368.55h-.28c-.24,0-.47-.05-.69-.14-.22-.09-.42-.22-.58-.39-.17.17-.37.3-.59.39-.22.09-.46.14-.7.14-.23,0-.46-.05-.69-.14-.23-.09-.43-.22-.59-.39-.36.35-.8.52-1.31.52-.28,0-.55-.07-.81-.2-.17-.07-.32-.18-.47-.33-.36.35-.8.52-1.3.52h-.33c-.17,0-.3-.05-.4-.15-.1-.1-.15-.24-.15-.4s.05-.3.15-.39c.1-.09.24-.14.4-.14h.33c.21,0,.39-.07.53-.21.14-.14.21-.32.21-.53v-1.55h1.11v1.55c0,.21.07.39.21.53.14.14.31.21.51.21.22,0,.4-.07.55-.21.15-.14.22-.32.22-.53v-1.55h1.08v1.55c0,.2.07.38.22.52.15.15.32.22.53.22s.39-.07.53-.22c.15-.15.22-.32.22-.52v-1.79h1.09v1.81c0,.2.07.37.22.51.15.14.32.21.51.21h.28c.18,0,.32.05.41.14.09.09.14.22.14.39s-.05.31-.15.41c-.1.1-.23.15-.41.15ZM692.27,368.55h-.17c-.49,0-.91-.16-1.23-.49-.34.33-.75.49-1.22.49h-4.28c-.17,0-.3-.05-.4-.15-.1-.1-.15-.23-.15-.41,0-.16.05-.29.15-.39.11-.09.24-.14.4-.14h4.28c.2,0,.36-.07.5-.2.13-.13.2-.3.2-.5,0-.17-.03-.31-.09-.42-.06-.11-.13-.2-.21-.27-.08-.07-.17-.12-.27-.16-.1-.04-.19-.07-.27-.08-.54-.11-1.06-.21-1.57-.31-.44-.08-.88-.16-1.34-.25-.46-.09-.85-.16-1.17-.22v-.92l2.2-1.75.63.7-1.35,1.17c.13.02.31.05.54.1s.48.09.75.14c.27.05.54.1.81.15.27.05.51.1.71.14.55.12.96.34,1.25.64.29.31.43.75.43,1.34.01.21.09.38.22.51.13.13.29.19.48.19h.17c.17,0,.31.05.41.14.09.09.14.23.14.39s-.05.31-.15.41c-.1.1-.23.15-.41.15ZM699.66,368.55h-1.55c-.49,0-.9-.17-1.24-.51-.33.34-.75.51-1.25.51-.23,0-.46-.05-.67-.14-.21-.09-.41-.22-.57-.39-.35.35-.77.52-1.27.52h-.84c-.17,0-.3-.05-.4-.15-.1-.1-.15-.23-.15-.41s.05-.31.15-.39c.09-.09.23-.14.4-.14h.84c.21,0,.38-.07.52-.2.13-.13.2-.3.2-.5v-1.53h1.09v1.66c0,.13.03.23.08.31.05.07.12.13.2.17.08.04.16.07.24.08.08.01.15.02.2.02.2,0,.36-.07.49-.2.13-.13.2-.3.22-.51v-1.52h1.06v1.6c.01.19.07.34.17.45.11.11.26.17.45.17h.55v-2.49h1.09v3.58ZM696.55,364.31h-1.01v-1.04h1.01v1.04ZM697.39,362.63h-1v-1.03h1v1.03ZM698.24,364.31h-1.01v-1.04h1.01v1.04ZM709.35,371.04h-4.15c-.25,0-.48-.05-.69-.14-.21-.09-.4-.22-.56-.39-.16-.16-.29-.35-.38-.57-.09-.21-.14-.45-.14-.69s.05-.47.14-.69c.09-.22.22-.41.38-.57.16-.16.35-.29.56-.39.21-.09.45-.14.69-.14h3.28c-.17-.31-.25-.65-.25-1.01,0-.28.06-.54.17-.79.11-.25.27-.47.46-.66.19-.19.41-.34.67-.45.25-.11.51-.17.79-.17.56,0,1.06.17,1.49.52l.17.13-.63.77-.16-.11c-.24-.16-.49-.24-.74-.24-.14,0-.27.02-.41.07-.13.04-.25.11-.36.2-.11.09-.19.19-.26.32-.07.12-.1.26-.1.41,0,.14.03.27.08.39.05.12.12.23.21.33.09.09.2.17.32.22.12.05.25.08.39.08h1.81v1l-1.81.09h-5.12c-.2,0-.36.07-.5.2-.13.13-.2.3-.2.5s.07.35.21.49c.14.14.3.21.49.21h4.15v1.09ZM715.89,368.79s.01-.07.02-.1c0-.02,0-.05,0-.08,0-.03,0-.05,0-.07h-.87c-.27,0-.52-.05-.76-.15-.24-.1-.44-.24-.62-.42-.17-.18-.31-.39-.41-.62-.1-.24-.15-.49-.15-.76s.05-.51.15-.75c.1-.24.24-.45.41-.63.17-.18.38-.33.62-.43.24-.11.49-.16.76-.16s.53.05.77.15c.24.1.44.24.62.43.17.18.31.39.41.63.1.24.15.49.15.77v.86h.52c.17,0,.31.05.4.14.1.09.15.23.15.39s-.05.31-.15.41c-.1.1-.23.15-.41.15h-.52c-.04.76-.33,1.36-.86,1.82-.11.09-.23.18-.37.25-.13.07-.27.14-.41.2-.14.06-.29.11-.43.15-.15.04-.28.08-.4.12-.04.01-.07.03-.11.03-.04,0-.08.02-.11.03l-.21.07-.29-.94.21-.08s.08-.03.12-.04c.04-.01.09-.03.13-.04.2-.07.41-.15.63-.23.21-.08.39-.18.54-.31.17-.13.28-.27.34-.43.06-.15.1-.28.13-.37ZM715.05,365.72c-.12,0-.23.02-.33.07-.11.05-.2.11-.28.19-.08.08-.14.17-.19.28-.05.11-.07.22-.07.34,0,.24.09.44.26.61.17.17.38.25.62.25h.88v-.86c0-.24-.09-.45-.26-.62s-.38-.26-.62-.26ZM718.24,368.55h-.72c-.17,0-.31-.05-.41-.15-.1-.09-.15-.23-.15-.4s.05-.3.15-.39c.1-.09.24-.14.41-.14h.72c.09,0,.18-.02.27-.06.08-.04.16-.09.22-.16.07-.07.12-.15.15-.23.04-.09.05-.18.05-.27v-1.73h1.09v1.77c0,.24-.05.47-.14.68-.09.21-.22.4-.39.57-.16.16-.35.29-.57.39-.22.1-.45.15-.69.15ZM718.98,363.27h1v1.03h-1v-1.03ZM725.02,371.13l-.28-.94.2-.07s.09-.03.13-.04c.04-.01.08-.03.13-.04.21-.07.42-.14.63-.23.21-.09.39-.19.53-.3.15-.12.27-.27.37-.46.1-.19.15-.39.13-.58h-.86c-.27,0-.52-.05-.76-.15-.24-.1-.44-.24-.62-.42-.17-.18-.31-.39-.41-.62-.1-.24-.15-.49-.15-.76s.05-.51.15-.75c.1-.24.24-.45.41-.63.17-.18.38-.32.62-.43.24-.11.49-.16.76-.16s.52.05.76.16c.24.11.44.25.62.43.18.18.32.39.42.62.1.24.15.49.15.76v1.75c0,.41-.07.78-.2,1.12-.13.34-.35.65-.66.92-.11.09-.23.18-.37.25-.13.07-.27.13-.42.19-.15.06-.29.11-.43.15-.14.04-.27.08-.4.12-.04.01-.08.03-.12.04-.04.01-.07.02-.11.04l-.22.05ZM725.99,365.62c-.12,0-.23.02-.34.07-.11.05-.2.11-.28.2-.08.08-.14.18-.19.28-.05.11-.07.22-.07.33,0,.24.09.44.26.61.17.17.38.25.62.25h.88v-.86c0-.12-.02-.23-.07-.33-.05-.11-.11-.2-.19-.28-.08-.08-.17-.15-.28-.2-.11-.05-.22-.07-.34-.07Z"/>
      <text class="cls-4" transform="translate(112.93 102.13)"><tspan class="cls-23" x="0" y="0">T</tspan><tspan class="cls-22" x="4.3" y="0">a</tspan><tspan x="9.31" y="0">gline</tspan></text>
      <g class="cls-16">
        <path class="cls-8" d="M840.89,594.28H1V1h839.89v593.28ZM841.89,0H0v595.28h841.89V0Z"/>
      </g>
      <text class="cls-6" transform="translate(112.56 84.14)"><tspan x="0" y="0">Chia</tspan><tspan class="cls-41" x="22.21" y="0">c</tspan><tspan x="27.48" y="0">o</tspan></text>
      <text class="cls-5" transform="translate(154.45 84.14)"><tspan x="0" y="0" xml:space="preserve"> B</tspan><tspan class="cls-33" x="9.05" y="0">r</tspan><tspan x="12.8" y="0">anding Guidelines | </tspan><tspan class="cls-24" x="111.71" y="0">V</tspan><tspan x="118.11" y="0">isual Identi</tspan><tspan class="cls-45" x="172.53" y="0">t</tspan><tspan class="cls-12" x="176.4" y="0">y</tspan></text>
      <text class="cls-21" transform="translate(685.19 488.49)"><tspan class="cls-34" x="0" y="0">V</tspan><tspan x="4.54" y="0">e</tspan><tspan class="cls-39" x="9.04" y="0">r</tspan><tspan class="cls-13" x="11.95" y="0">sion</tspan></text>
      <text class="cls-21" transform="translate(718.04 488.49)"><tspan x="0" y="0"> </tspan></text>
      <text class="cls-21" transform="translate(720.36 488.49)"><tspan x="0" y="0">01</tspan></text>
      <g class="cls-17">
        <line class="cls-2" x1="113.37" y1="113.39" x2="728.5" y2="113.39"/>
        <line class="cls-2" x1="519.82" y1="320.52" x2="728.5" y2="320.52"/>
      </g>
    </g>
  </g>
</svg>