<?xml version="1.0" encoding="UTF-8"?>
<svg id="Layer_2" data-name="Layer 2" xmlns="http://www.w3.org/2000/svg" xmlns:xlink="http://www.w3.org/1999/xlink" viewBox="0 0 841.89 595.28">
  <defs>
    <style>
      .cls-1, .cls-2 {
        fill: none;
      }

      .cls-3 {
        font-family: Montserrat-BoldItalic, 'Montserrat BoldItalic';
      }

      .cls-3, .cls-4 {
        font-weight: 700;
      }

      .cls-3, .cls-5, .cls-6 {
        font-style: italic;
      }

      .cls-3, .cls-7 {
        font-size: 10px;
      }

      .cls-8 {
        fill: #e6332b;
      }

      .cls-4 {
        font-family: AXIS-ExtraBold, 'AXIS ExtraBold';
      }

      .cls-4, .cls-5, .cls-6 {
        font-size: 12px;
      }

      .cls-2 {
        stroke: #1d1d1b;
        stroke-miterlimit: 10;
        stroke-width: .5px;
      }

      .cls-5 {
        font-family: Montserrat-ThinItalic, 'Montserrat ThinItalic';
        font-weight: 200;
      }

      .cls-9 {
        fill: #1d1d1b;
      }

      .cls-10 {
        letter-spacing: .13em;
      }

      .cls-11 {
        letter-spacing: .13em;
      }

      .cls-12 {
        letter-spacing: .13em;
      }

      .cls-7 {
        font-family: Montserrat-Regular, 'Montserrat Regular';
      }

      .cls-13 {
        letter-spacing: 0em;
      }

      .cls-14 {
        letter-spacing: 0em;
      }

      .cls-15 {
        clip-path: url(#clippath-1);
      }

      .cls-16 {
        clip-path: url(#clippath-3);
      }

      .cls-17 {
        clip-path: url(#clippath-2);
      }

      .cls-18 {
        letter-spacing: 0em;
      }

      .cls-19 {
        letter-spacing: 0em;
      }

      .cls-20 {
        letter-spacing: 0em;
      }

      .cls-21 {
        letter-spacing: 0em;
      }

      .cls-22 {
        fill: #878787;
        font-family: Montserrat-Light, 'Montserrat Light';
        font-size: 9px;
      }

      .cls-22, .cls-6 {
        font-weight: 300;
      }

      .cls-6 {
        font-family: Montserrat-LightItalic, 'Montserrat LightItalic';
      }

      .cls-23 {
        letter-spacing: -.02em;
      }

      .cls-24 {
        letter-spacing: -.02em;
      }

      .cls-25 {
        letter-spacing: -.01em;
      }

      .cls-26 {
        letter-spacing: -.01em;
      }

      .cls-27 {
        letter-spacing: -.01em;
      }

      .cls-28 {
        letter-spacing: -.05em;
      }

      .cls-29 {
        letter-spacing: -.03em;
      }

      .cls-30 {
        letter-spacing: 0em;
      }

      .cls-31 {
        letter-spacing: 0em;
      }

      .cls-32 {
        letter-spacing: 0em;
      }

      .cls-33 {
        letter-spacing: 0em;
      }

      .cls-34 {
        letter-spacing: 0em;
      }

      .cls-35 {
        letter-spacing: 0em;
      }

      .cls-36 {
        letter-spacing: 0em;
      }

      .cls-37 {
        letter-spacing: 0em;
      }

      .cls-38 {
        letter-spacing: 0em;
      }

      .cls-39 {
        letter-spacing: 0em;
      }

      .cls-40 {
        letter-spacing: 0em;
      }

      .cls-41 {
        letter-spacing: 0em;
      }

      .cls-42 {
        letter-spacing: 0em;
      }

      .cls-43 {
        letter-spacing: 0em;
      }

      .cls-44 {
        letter-spacing: 0em;
      }

      .cls-45 {
        letter-spacing: 0em;
      }

      .cls-46 {
        clip-path: url(#clippath);
      }

      .cls-47 {
        letter-spacing: .01em;
      }

      .cls-48 {
        letter-spacing: 0em;
      }
    </style>
    <clipPath id="clippath">
      <rect class="cls-1" width="841.89" height="595.28"/>
    </clipPath>
    <clipPath id="clippath-1">
      <rect class="cls-1" width="841.89" height="595.28"/>
    </clipPath>
    <clipPath id="clippath-2">
      <rect class="cls-1" width="841.89" height="595.28"/>
    </clipPath>
    <clipPath id="clippath-3">
      <rect class="cls-1" width="841.89" height="595.28"/>
    </clipPath>
  </defs>
  <g id="Layer_1-2" data-name="Layer 1">
    <g class="cls-46">
      <polygon class="cls-9" points="187.82 275.46 187.82 312.06 180.82 312.06 180.82 297.51 162.42 297.51 162.42 312.06 155.42 312.06 155.42 275.46 162.42 275.46 162.42 291.31 180.82 291.31 180.82 275.46 187.82 275.46"/>
      <rect class="cls-9" x="180.82" y="305.06" width="7" height="7"/>
      <rect class="cls-9" x="187.77" y="305.06" width="7" height="7"/>
      <rect class="cls-9" x="308.92" y="290.31" width="7" height="7"/>
      <g class="cls-15">
        <path class="cls-9" d="M148.89,303.06c-.8,1.47-1.78,2.79-2.95,3.98-1.17,1.18-2.46,2.2-3.88,3.05-1.42.85-2.95,1.51-4.6,1.98-1.65.47-3.36.7-5.12.7-2.6,0-5.05-.5-7.35-1.5-2.3-1-4.31-2.36-6.03-4.08-1.72-1.72-3.07-3.73-4.07-6.02-1-2.3-1.5-4.75-1.5-7.35s.5-5.05,1.5-7.35c1-2.3,2.36-4.31,4.07-6.02,1.72-1.72,3.73-3.08,6.03-4.08,2.3-1,4.75-1.5,7.35-1.5,1.77,0,3.48.23,5.12.7,1.65.47,3.18,1.12,4.6,1.98,1.42.85,2.71,1.87,3.88,3.05,1.17,1.18,2.15,2.49,2.95,3.93l-6.55,2.65c-.53-.8-1.16-1.55-1.88-2.25-.72-.7-1.51-1.32-2.38-1.85-.87-.53-1.78-.95-2.75-1.25-.97-.3-1.97-.45-3-.45-1.67,0-3.22.34-4.67,1.03-1.45.68-2.71,1.59-3.78,2.72-1.07,1.13-1.92,2.46-2.55,3.98-.63,1.52-.95,3.09-.95,4.73s.32,3.25.95,4.75c.63,1.5,1.48,2.82,2.55,3.95,1.07,1.13,2.32,2.04,3.78,2.72,1.45.68,3.01,1.03,4.67,1.03,1.03,0,2.03-.15,3-.45.97-.3,1.88-.72,2.75-1.25.87-.53,1.66-1.16,2.38-1.88.72-.72,1.34-1.48,1.88-2.27l6.55,2.65Z"/>
        <rect class="cls-9" x="201.72" y="275.51" width="7" height="36.55"/>
        <path class="cls-9" d="M212.73,312.06l18.7-36.55h.7l18.7,36.55h-7.6l-2.85-5.75h-17.25l-2.8,5.75h-7.6ZM226.53,300.21h10.45l-5.2-11.05-5.25,11.05Z"/>
        <path class="cls-9" d="M288.48,303.06c-.8,1.47-1.78,2.79-2.95,3.98-1.17,1.18-2.46,2.2-3.88,3.05-1.42.85-2.95,1.51-4.6,1.98-1.65.47-3.36.7-5.12.7-2.6,0-5.05-.5-7.35-1.5-2.3-1-4.31-2.36-6.02-4.08-1.72-1.72-3.08-3.73-4.08-6.02-1-2.3-1.5-4.75-1.5-7.35s.5-5.05,1.5-7.35c1-2.3,2.36-4.31,4.08-6.02,1.72-1.72,3.72-3.08,6.02-4.08,2.3-1,4.75-1.5,7.35-1.5,1.77,0,3.47.23,5.12.7,1.65.47,3.18,1.12,4.6,1.98,1.42.85,2.71,1.87,3.88,3.05,1.17,1.18,2.15,2.49,2.95,3.93l-6.55,2.65c-.53-.8-1.16-1.55-1.88-2.25-.72-.7-1.51-1.32-2.38-1.85-.87-.53-1.78-.95-2.75-1.25-.97-.3-1.97-.45-3-.45-1.67,0-3.23.34-4.68,1.03-1.45.68-2.71,1.59-3.77,2.72-1.07,1.13-1.92,2.46-2.55,3.98-.63,1.52-.95,3.09-.95,4.73s.32,3.25.95,4.75c.63,1.5,1.48,2.82,2.55,3.95,1.07,1.13,2.33,2.04,3.77,2.72,1.45.68,3.01,1.03,4.68,1.03,1.03,0,2.03-.15,3-.45.97-.3,1.88-.72,2.75-1.25.87-.53,1.66-1.16,2.38-1.88.72-.72,1.34-1.48,1.88-2.27l6.55,2.65Z"/>
        <path class="cls-9" d="M312.4,312.76c-2.6,0-5.05-.5-7.35-1.5s-4.31-2.36-6.02-4.08c-1.72-1.72-3.08-3.73-4.08-6.02-1-2.3-1.5-4.77-1.5-7.4s.5-5.06,1.5-7.38c1-2.32,2.36-4.33,4.08-6.05s3.73-3.07,6.02-4.07,4.75-1.5,7.35-1.5,5.1.5,7.4,1.5,4.31,2.36,6.02,4.07c1.72,1.72,3.08,3.73,4.08,6.05,1,2.32,1.5,4.77,1.5,7.38s-.5,5.1-1.5,7.4c-1,2.3-2.36,4.31-4.08,6.02-1.72,1.72-3.73,3.08-6.02,4.08s-4.77,1.5-7.4,1.5M312.42,281.31c-1.66,0-3.22.34-4.67,1.02-1.45.68-2.71,1.59-3.79,2.73-1.08,1.13-1.94,2.46-2.57,3.98-.63,1.52-.95,3.09-.95,4.73s.32,3.25.95,4.75c.63,1.5,1.49,2.82,2.57,3.97,1.08,1.15,2.35,2.07,3.79,2.75,1.45.68,3,1.03,4.67,1.03s3.22-.34,4.67-1.03c1.45-.68,2.71-1.6,3.79-2.75,1.08-1.15,1.94-2.47,2.57-3.97.63-1.5.95-3.08.95-4.75s-.32-3.21-.95-4.73c-.63-1.52-1.49-2.84-2.57-3.98-1.08-1.13-2.35-2.04-3.79-2.73-1.45-.68-3-1.02-4.67-1.02"/>
      </g>
      <text class="cls-4" transform="translate(109.72 102.13)"><tspan x="0" y="0"> </tspan></text>
      <text class="cls-4" transform="translate(112.56 102.13)"><tspan x="0" y="0">English </tspan><tspan class="cls-29" x="38.87" y="0">L</tspan><tspan x="44.12" y="0">og</tspan><tspan class="cls-29" x="57.42" y="0">o</tspan><tspan x="63.6" y="0">Type</tspan></text>
      <text class="cls-6" transform="translate(112.56 84.14)"><tspan x="0" y="0">Chia</tspan><tspan class="cls-36" x="22.21" y="0">c</tspan><tspan x="27.48" y="0">o</tspan></text>
      <text class="cls-5" transform="translate(154.46 84.14)"><tspan x="0" y="0" xml:space="preserve"> B</tspan><tspan class="cls-26" x="9.05" y="0">r</tspan><tspan class="cls-13" x="12.79" y="0">anding Guidelines | </tspan><tspan class="cls-23" x="111.69" y="0">V</tspan><tspan x="118.1" y="0">isual Identi</tspan><tspan class="cls-36" x="172.52" y="0">t</tspan><tspan x="176.38" y="0">y</tspan></text>
      <text class="cls-22" transform="translate(685.19 488.49)"><tspan class="cls-28" x="0" y="0">V</tspan><tspan x="4.54" y="0">e</tspan><tspan class="cls-33" x="9.04" y="0">r</tspan><tspan x="11.95" y="0">sion</tspan></text>
      <text class="cls-22" transform="translate(718.05 488.49)"><tspan x="0" y="0"> </tspan></text>
      <text class="cls-22" transform="translate(720.36 488.49)"><tspan x="0" y="0">01</tspan></text>
      <g class="cls-17">
        <line class="cls-2" x1="113.37" y1="113.39" x2="728.5" y2="113.39"/>
      </g>
      <text class="cls-7" transform="translate(431.54 286.23)"><tspan x="0" y="0">The</tspan><tspan class="cls-32" x="15.53" y="0"> </tspan><tspan class="cls-44" x="17.61" y="0">C</tspan><tspan x="23.4" y="0">h</tspan><tspan class="cls-44" x="28.95" y="0">i</tspan><tspan class="cls-19" x="31.28" y="0">a</tspan><tspan class="cls-35" x="36.11" y="0">c</tspan><tspan class="cls-44" x="40.5" y="0">o</tspan><tspan class="cls-34" x="45.98" y="0"> </tspan><tspan class="cls-40" x="48.06" y="0">t</tspan><tspan x="51.27" y="0">ype</tspan><tspan class="cls-34" x="66.68" y="0"> </tspan><tspan x="68.76" y="0">is</tspan><tspan class="cls-34" x="75.06" y="0"> </tspan><tspan x="77.14" y="0">t</tspan><tspan class="cls-18" x="80.45" y="0">h</tspan><tspan x="86.01" y="0">e</tspan><tspan class="cls-45" x="91.02" y="0"> </tspan><tspan x="93.11" y="0">p</tspan><tspan class="cls-41" x="98.8" y="0">r</tspan><tspan x="101.99" y="0">im</tspan><tspan class="cls-43" x="112.67" y="0">a</tspan><tspan class="cls-47" x="117.48" y="0">r</tspan><tspan x="120.89" y="0">y</tspan><tspan class="cls-45" x="125.6" y="0"> </tspan><tspan class="cls-42" x="127.69" y="0">L</tspan><tspan x="132.33" y="0">ogo</tspan><tspan class="cls-40" x="148.9" y="0">t</tspan><tspan x="152.11" y="0">ype</tspan><tspan class="cls-34" x="167.52" y="0"> </tspan><tspan x="169.6" y="0">of</tspan><tspan class="cls-45" x="178.01" y="0"> </tspan><tspan class="cls-44" x="180.1" y="0">o</tspan><tspan x="185.58" y="0">ur</tspan><tspan class="cls-34" x="194.36" y="0"> </tspan><tspan class="cls-38" x="196.44" y="0">c</tspan><tspan x="200.83" y="0">o</tspan><tspan class="cls-41" x="206.32" y="0">r</tspan><tspan class="cls-44" x="209.51" y="0">p</tspan><tspan class="cls-14" x="215.19" y="0">o</tspan><tspan class="cls-37" x="220.68" y="0">r</tspan><tspan class="cls-43" x="223.86" y="0">a</tspan><tspan x="228.67" y="0">tion.</tspan></text>
      <text class="cls-7" transform="translate(431.54 298.23)"><tspan x="0" y="0">It</tspan><tspan class="cls-12" x="5.7" y="0"> </tspan><tspan x="9.13" y="0">i</tspan><tspan class="cls-44" x="11.47" y="0">s</tspan><tspan class="cls-11" x="15.42" y="0"> </tspan><tspan class="cls-44" x="18.86" y="0">s</tspan><tspan x="22.81" y="0">im</tspan><tspan class="cls-44" x="33.49" y="0">p</tspan><tspan x="39.17" y="0">le,</tspan><tspan class="cls-11" x="48.61" y="0"> </tspan><tspan class="cls-31" x="52.05" y="0">A</tspan><tspan x="58.11" y="0">t</tspan><tspan class="cls-11" x="61.42" y="0"> </tspan><tspan class="cls-21" x="64.86" y="0">the</tspan><tspan class="cls-10" x="78.73" y="0"> </tspan><tspan class="cls-43" x="82.17" y="0">s</tspan><tspan x="86.12" y="0">a</tspan><tspan class="cls-19" x="90.94" y="0">m</tspan><tspan x="99.29" y="0">e</tspan><tspan class="cls-10" x="104.3" y="0"> </tspan><tspan x="107.74" y="0">ti</tspan><tspan class="cls-18" x="113.39" y="0">m</tspan><tspan x="121.74" y="0">e,</tspan><tspan class="cls-10" x="128.82" y="0"> </tspan><tspan x="132.26" y="0">the</tspan><tspan class="cls-11" x="146.13" y="0"> </tspan><tspan x="149.57" y="0">d</tspan><tspan class="cls-44" x="155.21" y="0">i</tspan><tspan x="157.54" y="0">sti</tspan><tspan class="cls-19" x="167.15" y="0">n</tspan><tspan class="cls-48" x="172.71" y="0">c</tspan><tspan x="177.24" y="0">ti</tspan><tspan class="cls-25" x="182.89" y="0">v</tspan><tspan x="187.55" y="0">e</tspan><tspan class="cls-12" x="192.56" y="0"> </tspan><tspan x="195.99" y="0">signatu</tspan><tspan class="cls-27" x="227.07" y="0">r</tspan><tspan x="230.21" y="0">e</tspan><tspan class="cls-10" x="235.22" y="0"> </tspan><tspan class="cls-14" x="238.66" y="0">of </tspan></text>
      <text class="cls-7" transform="translate(431.54 310.23)"><tspan x="0" y="0">t</tspan><tspan class="cls-18" x="3.31" y="0">h</tspan><tspan x="8.87" y="0">e </tspan><tspan class="cls-44" x="16" y="0">b</tspan><tspan class="cls-38" x="21.68" y="0">r</tspan><tspan x="24.86" y="0">a</tspan><tspan class="cls-19" x="29.68" y="0">n</tspan><tspan x="35.24" y="0">d</tspan><tspan class="cls-44" x="40.88" y="0" xml:space="preserve"> i</tspan><tspan x="45.32" y="0">s</tspan><tspan class="cls-43" x="49.28" y="0" xml:space="preserve"> i</tspan><tspan class="cls-18" x="53.72" y="0">n</tspan><tspan class="cls-39" x="59.28" y="0">c</tspan><tspan class="cls-43" x="63.68" y="0">l</tspan><tspan class="cls-21" x="66.03" y="0">u</tspan><tspan class="cls-44" x="71.54" y="0">d</tspan><tspan x="77.17" y="0">ed</tspan><tspan class="cls-44" x="87.82" y="0"> </tspan><tspan x="89.93" y="0">in</tspan><tspan class="cls-44" x="97.82" y="0"> </tspan><tspan x="99.93" y="0">t</tspan><tspan class="cls-19" x="103.24" y="0">h</tspan><tspan x="108.8" y="0">e</tspan><tspan class="cls-44" x="113.81" y="0"> </tspan><tspan x="115.92" y="0">l</tspan><tspan class="cls-43" x="118.28" y="0">o</tspan><tspan x="123.76" y="0">go</tspan><tspan class="cls-40" x="134.84" y="0">t</tspan><tspan x="138.05" y="0">ype.</tspan></text>
      <text class="cls-3" transform="translate(112.77 489.75)"><tspan x="0" y="0">Thi</tspan><tspan class="cls-45" x="12.86" y="0">c</tspan><tspan class="cls-21" x="17.31" y="0">k </tspan></text>
      <text class="cls-7" transform="translate(144.01 489.75)"><tspan x="0" y="0">A</tspan><tspan class="cls-20" x="6.12" y="0">l</tspan><tspan class="cls-24" x="8.5" y="0">t</tspan><tspan x="11.63" y="0">e</tspan><tspan class="cls-30" x="16.64" y="0">r</tspan><tspan x="19.84" y="0">nati</tspan><tspan class="cls-25" x="35.86" y="0">v</tspan><tspan x="40.52" y="0">e</tspan></text>
      <g class="cls-16">
        <path class="cls-8" d="M840.89,594.28H1V1h839.89v593.28ZM841.89,0H0v595.28h841.89V0Z"/>
      </g>
    </g>
  </g>
</svg>