<?xml version="1.0"?>
<svg id="Layer_6" data-name="Layer 6" xmlns="http://www.w3.org/2000/svg" viewBox="0 0 3000 3000">
  <defs>
    
  </defs>
  <text class="cls-2" transform="translate(2680.6237 134.0557)"><tspan class="cls-3" x="0" y="0">۱</tspan><tspan class="cls-1" x="21.15" y="0">. </tspan><tspan class="cls-3" x="46.29" y="0">لوگو</tspan><tspan class="cls-1" x="112.65" y="0"> </tspan><tspan class="cls-3" x="125.37" y="0">سیستم</tspan><tspan class="cls-3" x="154.17" y="144">برای</tspan><tspan class="cls-1" x="220.7" y="144">:</tspan><tspan class="cls-3" x="126.4" y="288">لوگوی</tspan><tspan class="cls-1" x="220.7" y="288">.</tspan><tspan class="cls-3" x="126.4" y="360">لوگوی</tspan><tspan class="cls-1" x="220.7" y="360">.</tspan><tspan class="cls-3" x="76.33" y="432">لوگومارک</tspan><tspan class="cls-1" x="220.7" y="432">.</tspan><tspan class="cls-3" x="-1388.5" y="504">وُردمارک</tspan><tspan class="cls-1" x="-1255.99" y="504" xml:space="preserve"> &#34;ROCKET CLUB&#34;. </tspan><tspan class="cls-3" x="-838.03" y="504">است</tspan><tspan class="cls-1" x="-762.33" y="504"> </tspan><tspan class="cls-3" x="-749.61" y="504">شده</tspan><tspan class="cls-1" x="-681.08" y="504"> </tspan><tspan class="cls-3" x="-668.36" y="504">شناخته</tspan><tspan class="cls-1" x="-557.06" y="504"> </tspan><tspan class="cls-3" x="-544.34" y="504">خوبی</tspan><tspan class="cls-1" x="-454.25" y="504"> </tspan><tspan class="cls-3" x="-441.53" y="504">به</tspan><tspan class="cls-1" x="-408.37" y="504"> </tspan><tspan class="cls-3" x="-395.65" y="504">قبل</tspan><tspan class="cls-1" x="-339.05" y="504"> </tspan><tspan class="cls-3" x="-326.33" y="504">از</tspan><tspan class="cls-1" x="-298.53" y="504"> </tspan><tspan class="cls-3" x="-285.81" y="504">برند</tspan><tspan class="cls-1" x="-223.64" y="504"> </tspan><tspan class="cls-3" x="-210.92" y="504">که</tspan><tspan class="cls-1" x="-171.66" y="504"> </tspan><tspan class="cls-3" x="-158.94" y="504">جاهایی</tspan><tspan class="cls-1" x="-41.17" y="504"> </tspan><tspan class="cls-3" x="-28.45" y="504">در</tspan><tspan class="cls-1" x="10.23" y="504"> </tspan><tspan class="cls-3" x="22.94" y="504">استفاده</tspan><tspan class="cls-1" x="141.45" y="504"> </tspan><tspan class="cls-3" x="154.17" y="504">برای</tspan><tspan class="cls-1" x="220.7" y="504">.</tspan><tspan class="cls-3" x="13.48" y="576">۲</tspan><tspan class="cls-1" x="34.63" y="576">. </tspan><tspan class="cls-3" x="59.77" y="576">برند</tspan><tspan class="cls-1" x="121.94" y="576"> </tspan><tspan class="cls-3" x="134.66" y="576">قوانین</tspan><tspan class="cls-3" x="123.64" y="720">حریم</tspan><tspan class="cls-1" x="207.98" y="720">. </tspan><tspan class="cls-3" x="-1061.23" y="792">این</tspan><tspan class="cls-1" x="-1010.73" y="792" xml:space="preserve"> &#39;X&#39; </tspan><tspan class="cls-3" x="-928.47" y="792">آن</tspan><tspan class="cls-1" x="-890.97" y="792"> </tspan><tspan class="cls-3" x="-878.25" y="792">در</tspan><tspan class="cls-1" x="-839.57" y="792"> </tspan><tspan class="cls-3" x="-826.85" y="792">که</tspan><tspan class="cls-1" x="-787.6" y="792"> </tspan><tspan class="cls-3" x="-774.88" y="792">باشد،</tspan><tspan class="cls-1" x="-692.55" y="792" xml:space="preserve"> &#39;X&#39; </tspan><tspan class="cls-3" x="-610.29" y="792">است</tspan><tspan class="cls-1" x="-534.59" y="792"> </tspan><tspan class="cls-3" x="-521.87" y="792">لوگومارک</tspan><tspan class="cls-1" x="-377.49" y="792"> </tspan><tspan class="cls-3" x="-364.77" y="792">در</tspan><tspan class="cls-1" x="-326.1" y="792"> </tspan><tspan class="cls-3" x="-313.38" y="792">آبی</tspan><tspan class="cls-1" x="-259.21" y="792"> </tspan><tspan class="cls-3" x="-246.49" y="792">های</tspan><tspan class="cls-1" x="-179.9" y="792">‌</tspan><tspan class="cls-3" x="-179.9" y="792">مربع</tspan><tspan class="cls-1" x="-103.87" y="792"> </tspan><tspan class="cls-3" x="-91.15" y="792">از</tspan><tspan class="cls-1" x="-63.35" y="792"> </tspan><tspan class="cls-3" x="-50.63" y="792">یکی</tspan><tspan class="cls-1" x="14.64" y="792"> </tspan><tspan class="cls-3" x="27.36" y="792">ارتفاع</tspan><tspan class="cls-1" x="115.49" y="792"> </tspan><tspan class="cls-3" x="128.21" y="792">با</tspan><tspan class="cls-1" x="151.38" y="792"> </tspan><tspan class="cls-3" x="164.1" y="792">برابر</tspan><tspan class="cls-3" x="118.05" y="864">حداقل</tspan><tspan class="cls-1" x="220.7" y="864">:</tspan><tspan class="cls-3" x="145.73" y="936">چاپ</tspan><tspan class="cls-1" x="220.7" y="936">.</tspan><tspan class="cls-3"><tspan x="110.96" y="1008">دیجیتال</tspan></tspan><tspan class="cls-1"><tspan x="220.7" y="1080">.</tspan></tspan><tspan class="cls-3" x="21.04" y="1152">۳</tspan><tspan class="cls-1" x="42.19" y="1152">. </tspan><tspan class="cls-3" x="67.33" y="1152">رنگی</tspan><tspan class="cls-1" x="145.87" y="1152"> </tspan><tspan class="cls-3" x="158.59" y="1152">پالت</tspan><tspan class="cls-3" x="170.2" y="1224">این</tspan><tspan class="cls-1" x="220.7" y="1224">.</tspan><tspan class="cls-3"><tspan x="158.12" y="1296">نقش</tspan></tspan><tspan class="cls-3" x="-280.16" y="1368">رنگ</tspan><tspan class="cls-3" x="-195.82" y="1368">کلاب</tspan><tspan class="cls-1" x="-118.3" y="1368"> </tspan><tspan class="cls-3" x="-105.58" y="1368">ای</tspan><tspan class="cls-3" x="-66.85" y="1368">سرمه</tspan><tspan class="cls-1" x="20.18" y="1368">18224</tspan><tspan class="cls-1" x="174.08" y="1368">#</tspan><tspan class="cls-1" x="203.9" y="1368">F</tspan><tspan class="cls-3" x="-256.4" y="1440">رنگ</tspan><tspan class="cls-3" x="-172.06" y="1440">کورت</tspan><tspan class="cls-1" x="-84.22" y="1440"> </tspan><tspan class="cls-3" x="-71.5" y="1440">کرم</tspan><tspan class="cls-1" x="-18.21" y="1440" xml:space="preserve">&#x9;#ECE7D0</tspan><tspan class="cls-3" x="-240.69" y="1512">رنگ</tspan><tspan class="cls-3" x="-163.12" y="1512">جنگلی</tspan><tspan class="cls-1" x="-57.56" y="1512"> </tspan><tspan class="cls-3" x="-44.84" y="1512">سبز</tspan><tspan class="cls-1" x="16.88" y="1512">3</tspan><tspan class="cls-1" x="47.66" y="1512">#</tspan><tspan class="cls-1" x="77.48" y="1512">B5328</tspan><tspan class="cls-3" x="-263.5" y="1584">رنگ</tspan><tspan class="cls-3" x="-165.76" y="1584">آجری</tspan><tspan class="cls-1" x="-81.56" y="1584"> </tspan><tspan class="cls-3" x="-68.84" y="1584">قرمز</tspan><tspan class="cls-1" x="1.18" y="1584" xml:space="preserve">&#x9;#A72F23</tspan><tspan class="cls-3" x="-289.44" y="1656">رنگ</tspan><tspan class="cls-3" x="-205.78" y="1656">سنگی</tspan><tspan class="cls-1" x="-113.7" y="1656"> </tspan><tspan class="cls-3" x="-100.98" y="1656">ماسه</tspan><tspan class="cls-1" x="-23.75" y="1656" xml:space="preserve">&#x9;#C6AF92</tspan><tspan class="cls-3" x="-335.14" y="1728">رنگ</tspan><tspan class="cls-3" x="-237.4" y="1728">پررنگ</tspan><tspan class="cls-1" x="-139.46" y="1728"> </tspan><tspan class="cls-3" x="-126.74" y="1728">ای</tspan><tspan class="cls-3" x="-88.01" y="1728">قهوه</tspan><tspan class="cls-1" x="14.6" y="1728">672</tspan><tspan class="cls-1" x="106.94" y="1728">#</tspan><tspan class="cls-1" x="136.76" y="1728">C24</tspan><tspan class="cls-3" x="-267.9" y="1800">رنگ</tspan><tspan class="cls-3" x="-188.02" y="1800">خالص</tspan><tspan class="cls-1" x="-95.61" y="1800"> </tspan><tspan class="cls-3" x="-82.89" y="1800">سفید</tspan><tspan class="cls-1" x="-1.27" y="1800" xml:space="preserve">&#x9;#FFFFFF</tspan><tspan class="cls-3" x="-89.12" y="1872">۴</tspan><tspan class="cls-1" x="-67.97" y="1872">. </tspan><tspan class="cls-3" x="-42.83" y="1872">تایپوگرافی</tspan><tspan class="cls-1" x="112.65" y="1872"> </tspan><tspan class="cls-3" x="125.37" y="1872">سیستم</tspan><tspan class="cls-3" x="-96.75" y="2016">فونت</tspan><tspan class="cls-1" x="-8.92" y="2016">: Mansory</tspan><tspan class="cls-3" x="-329.57" y="2160">تیترها</tspan><tspan class="cls-1" x="-243.7" y="2160">: Mansory Medium.</tspan><tspan class="cls-3" x="154.17" y="2232">برای</tspan><tspan class="cls-1" x="220.7" y="2232">.</tspan><tspan class="cls-3" x="-338.04" y="2304">تیترهای</tspan><tspan class="cls-1" x="-222.76" y="2304">: Mansory Regular.</tspan><tspan class="cls-1" x="-653.8" y="2376"> </tspan><tspan class="cls-3" x="-641.08" y="2376">شود</tspan><tspan class="cls-1" x="-575.63" y="2376">‌</tspan><tspan class="cls-3" x="-575.63" y="2376">می</tspan><tspan class="cls-1" x="-526.08" y="2376"> </tspan><tspan class="cls-3" x="-513.37" y="2376">استفاده</tspan><tspan class="cls-1" x="-394.86" y="2376"> </tspan><tspan class="cls-3" x="-382.14" y="2376">توصیفی</tspan><tspan class="cls-1" x="-256.6" y="2376"> </tspan><tspan class="cls-3" x="-243.88" y="2376">متون</tspan><tspan class="cls-1" x="-165.78" y="2376"> </tspan><tspan class="cls-3" x="-153.06" y="2376">سایر</tspan><tspan class="cls-1" x="-83.92" y="2376"> </tspan><tspan class="cls-3" x="-71.2" y="2376">و</tspan><tspan class="cls-1" x="-50.69" y="2376"> </tspan><tspan class="cls-3" x="-37.97" y="2376">ها</tspan><tspan class="cls-3" x="-.79" y="2376">پاراگراف</tspan><tspan class="cls-1" x="128.73" y="2376"> </tspan><tspan class="cls-3" x="141.45" y="2376">برای</tspan><tspan class="cls-1" x="207.98" y="2376">. </tspan><tspan class="cls-1" x="-1835.55" y="2448">(</tspan><tspan class="cls-3" x="-1818.51" y="2448">شود</tspan><tspan class="cls-1" x="-1753.06" y="2448"> </tspan><tspan class="cls-3" x="-1740.34" y="2448">تست</tspan><tspan class="cls-1" x="-1657.55" y="2448"> </tspan><tspan class="cls-3" x="-1644.83" y="2448">نیز</tspan><tspan class="cls-1" x="-1599.71" y="2448"> </tspan><tspan class="cls-3" x="-1586.99" y="2448">بدنه</tspan><tspan class="cls-1" x="-1518.58" y="2448"> </tspan><tspan class="cls-3" x="-1505.86" y="2448">متن</tspan><tspan class="cls-1" x="-1453.3" y="2448"> </tspan><tspan class="cls-3" x="-1440.58" y="2448">برای</tspan><tspan class="cls-1" x="-1374.05" y="2448"> </tspan><tspan class="cls-3" x="-1361.33" y="2448">اختصاصی</tspan><tspan class="cls-1" x="-1208.75" y="2448"> </tspan><tspan class="cls-3" x="-1196.03" y="2448">فونت</tspan><tspan class="cls-1" x="-1108.2" y="2448"> </tspan><tspan class="cls-3" x="-1095.48" y="2448">یک</tspan><tspan class="cls-1" x="-1041.4" y="2448"> </tspan><tspan class="cls-3" x="-1028.68" y="2448">حداکثری،</tspan><tspan class="cls-1" x="-886.23" y="2448"> </tspan><tspan class="cls-3" x="-873.52" y="2448">خوانایی</tspan><tspan class="cls-1" x="-752.75" y="2448"> </tspan><tspan class="cls-3" x="-740.03" y="2448">از</tspan><tspan class="cls-1" x="-712.23" y="2448"> </tspan><tspan class="cls-3" x="-699.51" y="2448">اطمینان</tspan><tspan class="cls-1" x="-577.34" y="2448"> </tspan><tspan class="cls-3" x="-564.62" y="2448">جهت</tspan><tspan class="cls-1" x="-478.84" y="2448"> </tspan><tspan class="cls-3" x="-466.12" y="2448">است</tspan><tspan class="cls-1" x="-390.42" y="2448"> </tspan><tspan class="cls-3" x="-377.7" y="2448">بهتر</tspan><tspan class="cls-1" x="-319.84" y="2448"> </tspan><tspan class="cls-3" x="-307.12" y="2448">طولانی،</tspan><tspan class="cls-1" x="-187.53" y="2448"> </tspan><tspan class="cls-3" x="-174.81" y="2448">بسیار</tspan><tspan class="cls-1" x="-89.94" y="2448"> </tspan><tspan class="cls-3" x="-77.22" y="2448">مقالات</tspan><tspan class="cls-1" x="30.33" y="2448"> </tspan><tspan class="cls-3" x="43.05" y="2448">برای</tspan><tspan class="cls-1" x="109.59" y="2448">: </tspan><tspan class="cls-3" x="134.73" y="2448">نکته</tspan><tspan class="cls-1" x="203.66" y="2448">).</tspan><tspan class="cls-3" x="-83.43" y="2520">فونت</tspan><tspan class="cls-1" x="4.4" y="2520" xml:space="preserve"> (Nimkat)</tspan><tspan class="cls-3" x="154.17" y="2664">برای</tspan><tspan class="cls-1" x="220.7" y="2664">.</tspan></text>
</svg>